<?xml version="1.0" encoding="UTF-8" standalone="no"?>
<!-- Created with Inkscape (http://www.inkscape.org/) -->

<svg
   xmlns:dc="http://purl.org/dc/elements/1.1/"
   xmlns:cc="http://creativecommons.org/ns#"
   xmlns:rdf="http://www.w3.org/1999/02/22-rdf-syntax-ns#"
   xmlns:svg="http://www.w3.org/2000/svg"
   xmlns="http://www.w3.org/2000/svg"
   xmlns:xlink="http://www.w3.org/1999/xlink"
   xmlns:sodipodi="http://sodipodi.sourceforge.net/DTD/sodipodi-0.dtd"
   xmlns:inkscape="http://www.inkscape.org/namespaces/inkscape"
   width="48"
   height="48"
   id="svg2"
   sodipodi:version="0.32"
   inkscape:version="0.48.4 r9939"
   version="1.0"
   sodipodi:docname="load_labels.svg"
   inkscape:output_extension="org.inkscape.output.svg.inkscape">
  <defs
     id="defs4">
    <inkscape:perspective
       sodipodi:type="inkscape:persp3d"
       inkscape:vp_x="0 : 526.18109 : 1"
       inkscape:vp_y="0 : 1000 : 0"
       inkscape:vp_z="744.09448 : 526.18109 : 1"
       inkscape:persp3d-origin="372.04724 : 350.78739 : 1"
       id="perspective10" />
    <radialGradient
       inkscape:collect="always"
       xlink:href="#linearGradient4991"
       id="radialGradient4997"
       cx="23.447077"
       cy="6.4576745"
       fx="23.447077"
       fy="6.4576745"
       r="19.0625"
       gradientTransform="matrix(-0.79849258,-0.00611297,-0.00621413,0.8117049,47.571591,15.656618)"
       gradientUnits="userSpaceOnUse" />
    <linearGradient
       inkscape:collect="always"
       id="linearGradient4991">
      <stop
         style="stop-color:#ffffff;stop-opacity:1;"
         offset="0"
         id="stop4993" />
      <stop
         style="stop-color:#ffffff;stop-opacity:0;"
         offset="1"
         id="stop4995" />
    </linearGradient>
    <linearGradient
       inkscape:collect="always"
       xlink:href="#linearGradient2187"
       id="linearGradient1764"
       gradientUnits="userSpaceOnUse"
       gradientTransform="matrix(0.55529049,0,0,0.55529049,17.143901,16.994849)"
       x1="33.059906"
       y1="27.394117"
       x2="12.624337"
       y2="12.583769" />
    <linearGradient
       id="linearGradient2187"
       inkscape:collect="always">
      <stop
         id="stop2189"
         offset="0"
         style="stop-color:#ffffff;stop-opacity:1;" />
      <stop
         id="stop2191"
         offset="1"
         style="stop-color:#ffffff;stop-opacity:0;" />
    </linearGradient>
    <linearGradient
       gradientTransform="matrix(0.60746306,0,0,0.60746306,19.493992,18.639192)"
       inkscape:collect="always"
       xlink:href="#linearGradient6901"
       id="linearGradient6907"
       x1="14.751649"
       y1="15.868432"
       x2="8.8953285"
       y2="16.743431"
       gradientUnits="userSpaceOnUse" />
    <linearGradient
       inkscape:collect="always"
       id="linearGradient6901">
      <stop
         style="stop-color:#3465a4;stop-opacity:1;"
         offset="0"
         id="stop6903" />
      <stop
         style="stop-color:#3465a4;stop-opacity:0;"
         offset="1"
         id="stop6905" />
    </linearGradient>
    <linearGradient
       gradientTransform="matrix(0.60746306,0,0,0.60746306,19.493992,18.639192)"
       inkscape:collect="always"
       xlink:href="#linearGradient6925"
       id="linearGradient6931"
       x1="12.25"
       y1="18.25"
       x2="7"
       y2="21.118431"
       gradientUnits="userSpaceOnUse" />
    <linearGradient
       inkscape:collect="always"
       id="linearGradient6925">
      <stop
         style="stop-color:#204a87;stop-opacity:1;"
         offset="0"
         id="stop6927" />
      <stop
         style="stop-color:#204a87;stop-opacity:0;"
         offset="1"
         id="stop6929" />
    </linearGradient>
    <radialGradient
       inkscape:collect="always"
       xlink:href="#linearGradient8662"
       id="radialGradient8668"
       cx="24.837126"
       cy="36.421127"
       fx="24.837126"
       fy="36.421127"
       r="15.644737"
       gradientTransform="matrix(1,0,0,0.536723,0,16.87306)"
       gradientUnits="userSpaceOnUse" />
    <linearGradient
       inkscape:collect="always"
       id="linearGradient8662">
      <stop
         style="stop-color:#000000;stop-opacity:1;"
         offset="0"
         id="stop8664" />
      <stop
         style="stop-color:#000000;stop-opacity:0;"
         offset="1"
         id="stop8666" />
    </linearGradient>
    <linearGradient
       inkscape:collect="always"
       xlink:href="#linearGradient2555"
       id="linearGradient2553"
       x1="33.431175"
       y1="31.964777"
       x2="21.747974"
       y2="11.780679"
       gradientUnits="userSpaceOnUse" />
    <linearGradient
       id="linearGradient2555">
      <stop
         id="stop2557"
         offset="0"
         style="stop-color:#ffffff;stop-opacity:1;" />
      <stop
         style="stop-color:#e6e6e6;stop-opacity:1.0000000;"
         offset="0.50000000"
         id="stop2561" />
      <stop
         id="stop2563"
         offset="0.75000000"
         style="stop-color:#ffffff;stop-opacity:1.0000000;" />
      <stop
         style="stop-color:#e1e1e1;stop-opacity:1.0000000;"
         offset="0.84166664"
         id="stop2565" />
      <stop
         id="stop2559"
         offset="1.0000000"
         style="stop-color:#ffffff;stop-opacity:1.0000000;" />
    </linearGradient>
    <linearGradient
       gradientUnits="userSpaceOnUse"
       y2="47.620636"
       x2="44.0961"
       y1="4.433136"
       x1="12.378357"
       id="linearGradient4260"
       xlink:href="#linearGradient4254"
       inkscape:collect="always"
       gradientTransform="matrix(0.60746306,0,0,0.60746306,19.493992,21.75244)" />
    <linearGradient
       id="linearGradient4254"
       inkscape:collect="always">
      <stop
         id="stop4256"
         offset="0"
         style="stop-color:#ffffff;stop-opacity:1;" />
      <stop
         id="stop4258"
         offset="1"
         style="stop-color:#ffffff;stop-opacity:0;" />
    </linearGradient>
    <linearGradient
       gradientUnits="userSpaceOnUse"
       y2="26.357183"
       x2="23.688078"
       y1="11.318835"
       x1="23.688078"
       id="linearGradient4272"
       xlink:href="#linearGradient4274"
       inkscape:collect="always"
       gradientTransform="matrix(0.60746306,0,0,0.60746306,19.493992,21.752441)" />
    <linearGradient
       id="linearGradient4274">
      <stop
         style="stop-color:#ffffff;stop-opacity:0.25490198;"
         offset="0.0000000"
         id="stop4276" />
      <stop
         style="stop-color:#ffffff;stop-opacity:1.0000000;"
         offset="1.0000000"
         id="stop4278" />
    </linearGradient>
    <linearGradient
       gradientUnits="userSpaceOnUse"
       y2="33.758667"
       x2="12.221823"
       y1="37.205811"
       x1="12.277412"
       id="linearGradient4242"
       xlink:href="#linearGradient4236"
       inkscape:collect="always"
       gradientTransform="matrix(0.60746306,0,0,0.60746306,19.493992,21.752441)" />
    <linearGradient
       id="linearGradient4236"
       inkscape:collect="always">
      <stop
         id="stop4238"
         offset="0"
         style="stop-color:#eeeeee;stop-opacity:1;" />
      <stop
         id="stop4240"
         offset="1"
         style="stop-color:#eeeeee;stop-opacity:0;" />
    </linearGradient>
    <linearGradient
       gradientTransform="matrix(0.60746306,0,0,0.60746306,19.977224,20.947054)"
       y2="35.28125"
       x2="24.6875"
       y1="35.28125"
       x1="7.0625"
       gradientUnits="userSpaceOnUse"
       id="linearGradient4209"
       xlink:href="#linearGradient4184"
       inkscape:collect="always" />
    <linearGradient
       id="linearGradient4184">
      <stop
         id="stop4186"
         offset="0.0000000"
         style="stop-color:#838383;stop-opacity:1.0000000;" />
      <stop
         id="stop4188"
         offset="1.0000000"
         style="stop-color:#bbbbbb;stop-opacity:0.0000000;" />
    </linearGradient>
    <radialGradient
       gradientUnits="userSpaceOnUse"
       gradientTransform="matrix(0.7813445,0.47485266,-0.43177381,0.71045964,18.063812,18.789928)"
       r="20.935818"
       fy="2.958519"
       fx="15.571491"
       cy="2.958519"
       cx="15.571491"
       id="radialGradient4250"
       xlink:href="#linearGradient4244"
       inkscape:collect="always" />
    <linearGradient
       id="linearGradient4244">
      <stop
         id="stop4246"
         offset="0.0000000"
         style="stop-color:#e4e4e4;stop-opacity:1.0000000;" />
      <stop
         id="stop4248"
         offset="1.0000000"
         style="stop-color:#d3d3d3;stop-opacity:1.0000000;" />
    </linearGradient>
    <linearGradient
       gradientUnits="userSpaceOnUse"
       y2="40.943935"
       x2="36.183067"
       y1="28.481176"
       x1="7.6046205"
       id="linearGradient4234"
       xlink:href="#linearGradient4228"
       inkscape:collect="always"
       gradientTransform="matrix(0.60746306,0,0,0.60746306,19.493992,21.752441)" />
    <linearGradient
       id="linearGradient4228">
      <stop
         id="stop4230"
         offset="0.0000000"
         style="stop-color:#bbbbbb;stop-opacity:1.0000000;" />
      <stop
         id="stop4232"
         offset="1.0000000"
         style="stop-color:#9f9f9f;stop-opacity:1.0000000;" />
    </linearGradient>
    <radialGradient
       gradientUnits="userSpaceOnUse"
       gradientTransform="matrix(1,0,0,0.651032,0,9.455693)"
       r="23.555494"
       fy="27.096155"
       fx="23.201941"
       cy="27.096155"
       cx="23.201941"
       id="radialGradient4270"
       xlink:href="#linearGradient4264"
       inkscape:collect="always" />
    <linearGradient
       id="linearGradient4264"
       inkscape:collect="always">
      <stop
         id="stop4266"
         offset="0"
         style="stop-color:#000000;stop-opacity:1;" />
      <stop
         id="stop4268"
         offset="1"
         style="stop-color:#000000;stop-opacity:0;" />
    </linearGradient>
    <radialGradient
       r="23.555494"
       fy="27.096155"
       fx="23.201941"
       cy="27.096155"
       cx="23.201941"
       gradientTransform="matrix(1,0,0,0.651032,0,9.455693)"
       gradientUnits="userSpaceOnUse"
       id="radialGradient3159"
       xlink:href="#linearGradient4264"
       inkscape:collect="always" />
    <linearGradient
       inkscape:collect="always"
       xlink:href="#linearGradient2187-1"
       id="linearGradient1764-2"
       gradientUnits="userSpaceOnUse"
       gradientTransform="matrix(0.55529049,0,0,-0.55529049,59.533253,38.926687)"
       x1="33.059906"
       y1="27.394117"
       x2="12.624337"
       y2="12.583769" />
    <linearGradient
       id="linearGradient2187-1"
       inkscape:collect="always">
      <stop
         id="stop2189-5"
         offset="0"
         style="stop-color:#ffffff;stop-opacity:1;" />
      <stop
         id="stop2191-6"
         offset="1"
         style="stop-color:#ffffff;stop-opacity:0;" />
    </linearGradient>
    <linearGradient
       gradientTransform="matrix(0.60746306,0,0,0.60746306,19.493992,18.639192)"
       inkscape:collect="always"
       xlink:href="#linearGradient6901-0"
       id="linearGradient6907-1"
       x1="14.751649"
       y1="15.868432"
       x2="8.8953285"
       y2="16.743431"
       gradientUnits="userSpaceOnUse" />
    <linearGradient
       inkscape:collect="always"
       id="linearGradient6901-0">
      <stop
         style="stop-color:#3465a4;stop-opacity:1;"
         offset="0"
         id="stop6903-4" />
      <stop
         style="stop-color:#3465a4;stop-opacity:0;"
         offset="1"
         id="stop6905-1" />
    </linearGradient>
    <linearGradient
       gradientTransform="matrix(0.60746306,0,0,0.60746306,19.493992,18.639192)"
       inkscape:collect="always"
       xlink:href="#linearGradient6925-9"
       id="linearGradient6931-8"
       x1="12.25"
       y1="18.25"
       x2="7"
       y2="21.118431"
       gradientUnits="userSpaceOnUse" />
    <linearGradient
       inkscape:collect="always"
       id="linearGradient6925-9">
      <stop
         style="stop-color:#204a87;stop-opacity:1;"
         offset="0"
         id="stop6927-1" />
      <stop
         style="stop-color:#204a87;stop-opacity:0;"
         offset="1"
         id="stop6929-0" />
    </linearGradient>
    <linearGradient
       y2="21.118431"
       x2="7"
       y1="18.25"
       x1="12.25"
       gradientTransform="matrix(0.60746306,0,0,-0.60746306,61.883344,37.282344)"
       gradientUnits="userSpaceOnUse"
       id="linearGradient3298"
       xlink:href="#linearGradient6925-9"
       inkscape:collect="always" />
    <linearGradient
       inkscape:collect="always"
       xlink:href="#linearGradient6925-9"
       id="linearGradient3352"
       gradientUnits="userSpaceOnUse"
       gradientTransform="matrix(0.60746306,0,0,-0.60746306,61.883344,37.282344)"
       x1="12.25"
       y1="18.25"
       x2="7"
       y2="21.118431" />
    <linearGradient
       inkscape:collect="always"
       xlink:href="#linearGradient2187-1"
       id="linearGradient3354"
       gradientUnits="userSpaceOnUse"
       gradientTransform="matrix(0.55529049,0,0,-0.55529049,59.533253,38.926687)"
       x1="33.059906"
       y1="27.394117"
       x2="12.624337"
       y2="12.583769" />
  </defs>
  <sodipodi:namedview
     id="base"
     pagecolor="#ffffff"
     bordercolor="#666666"
     borderopacity="1.0"
     inkscape:pageopacity="0.0"
     inkscape:pageshadow="2"
     inkscape:zoom="5.6"
     inkscape:cx="33.295174"
     inkscape:cy="10.184568"
     inkscape:document-units="px"
     inkscape:current-layer="layer1"
     showgrid="false"
     inkscape:window-width="1280"
     inkscape:window-height="977"
     inkscape:window-x="-2"
     inkscape:window-y="24"
     inkscape:window-maximized="1" />
  <metadata
     id="metadata7">
    <rdf:RDF>
      <cc:Work
         rdf:about="">
        <dc:format>image/svg+xml</dc:format>
        <dc:type
           rdf:resource="http://purl.org/dc/dcmitype/StillImage" />
        <dc:title />
      </cc:Work>
    </rdf:RDF>
  </metadata>
  <g
     inkscape:label="Capa 1"
     inkscape:groupmode="layer"
     id="layer1">
    <path
       style="fill:#3465a4;stroke:none;display:inline"
       d="M 11.859889,43.328222 C 11.4382,43.14872 9.068809,40.96017 6.5945672,38.464775 2.4275068,34.262078 2.0778377,33.795499 1.850118,32.133955 1.7149021,31.147396 1.7235755,29.85358 1.8693801,29.258808 2.2048676,27.890363 27.022435,2.8441097 28.810918,2.0690086 c 0.880462,-0.3815785 2.943016,-0.534616 7.205286,-0.534616 5.829191,0 5.994161,0.0225 6.912663,0.9409553 0.917994,0.9179972 0.940955,1.0857722 0.940955,6.8753961 0,3.26394 -0.182523,6.420062 -0.4056,7.013608 -0.427838,1.138353 -23.25381,24.330931 -25.815742,26.230369 -1.160045,0.860068 -1.89026,1.103026 -3.258495,1.08417 -0.969876,-0.01345 -2.108427,-0.171136 -2.530116,-0.350669 z M 22.734976,32.061443 c 6.623255,-6.629168 7.761454,-7.933603 7.537702,-8.638584 -0.330919,-1.042635 -7.291966,-7.974123 -8.3432,-8.307776 -0.636664,-0.20206 -2.2008,1.173985 -8.586687,7.554176 -4.931533,4.927126 -7.8082237,8.082599 -7.8082237,8.564918 0,1.033856 7.5898407,8.63549 8.6220967,8.63549 0.499738,0 3.561213,-2.786641 8.578312,-7.808224 z M 37.49282,10.707033 C 38.647448,9.798807 38.789992,8.620664 37.868458,7.6023836 36.644996,6.2504711 33.902671,7.1442648 33.902671,8.894934 c 0,0.739144 1.598366,2.60663 2.23099,2.60663 0.19199,0 0.803619,-0.35754 1.359159,-0.794531 z"
       id="path4464"
       inkscape:connector-curvature="0" />
    <g
       id="g3092"
       transform="matrix(1.1847224,0,0,1.1778506,-9.2160795,-8.4362272)">
      <path
         sodipodi:type="arc"
         style="opacity:0.56000001;color:#000000;fill:url(#radialGradient3159);fill-opacity:1;fill-rule:evenodd;stroke:none;stroke-width:1;marker:none;visibility:visible;display:inline;overflow:visible"
         id="path4262"
         sodipodi:cx="23.201941"
         sodipodi:cy="27.096155"
         sodipodi:rx="23.555494"
         sodipodi:ry="15.335379"
         d="m 46.757435,27.096155 c 0,8.469496 -10.546154,15.335379 -23.555494,15.335379 -13.009341,0 -23.55549477,-6.865883 -23.55549477,-15.335379 0,-8.469496 10.54615377,-15.335378 23.55549477,-15.335378 13.00934,0 23.555494,6.865882 23.555494,15.335378 z"
         transform="matrix(0.63937492,0,0,0.22057773,19.183118,38.074888)" />
      <path
         style="fill:none;stroke:#535353;stroke-width:1.21492612;stroke-linecap:round;stroke-linejoin:round;stroke-miterlimit:4;stroke-opacity:1;stroke-dasharray:none"
         d="m 26.349632,26.589443 c -0.379665,0 -0.626446,0.176274 -0.778311,0.512549 -1e-6,0 -3.929527,10.389779 -3.929527,10.389779 0,0 -0.151866,0.407947 -0.151866,1.082043 0,0 0,5.861999 0,5.861999 0,0.657648 0.39958,0.987129 1.006111,0.987128 l 23.425293,0 c 0.598262,0 0.968144,-0.436268 0.968144,-1.12001 l 0,-5.861999 c 0,0 0.06437,-0.468004 -0.05695,-0.797295 L 42.751134,27.196908 c -0.112092,-0.310964 -0.386896,-0.600233 -0.683396,-0.607465 l -15.718106,0 z"
         id="path4196"
         sodipodi:nodetypes="cccsccccccccc"
         inkscape:connector-curvature="0" />
      <path
         style="fill:url(#linearGradient4234);fill-opacity:1;fill-rule:evenodd;stroke:none"
         d="m 21.482578,38.152007 0.464468,-0.420495 22.846496,0.03797 2.103285,0.192747 0,6.341022 c 0,0.683742 -0.368741,1.119756 -0.967003,1.119756 l -23.43774,0 c -0.60653,0 -1.009506,-0.329276 -1.009506,-0.986923 l 0,-6.284073 z"
         id="path4170"
         sodipodi:nodetypes="ccccccccc"
         inkscape:connector-curvature="0" />
      <path
         style="fill:url(#radialGradient4250);fill-opacity:1;fill-rule:evenodd;stroke:none"
         d="m 21.649929,37.494484 c -0.433901,0.889499 -3.73e-4,1.453572 0.629159,1.453572 0,0 23.691058,0 23.691058,0 0.67978,-0.01446 1.120914,-0.614695 0.867804,-1.301707 L 42.759269,27.191485 C 42.647178,26.880521 42.361526,26.591252 42.065026,26.58402 l -15.707259,0 c -0.379664,0 -0.629158,0.184409 -0.781023,0.520685 0,0 -3.926815,10.389779 -3.926815,10.389779 z"
         id="path3093"
         sodipodi:nodetypes="csccccccs"
         inkscape:connector-curvature="0" />
      <rect
         style="color:#000000;fill:url(#linearGradient4209);fill-opacity:1;fill-rule:evenodd;stroke:none;stroke-width:2.40899992;marker:none;visibility:visible;display:inline;overflow:visible"
         id="rect4174"
         width="10.706536"
         height="3.3790133"
         x="24.267435"
         y="40.689606" />
      <path
         style="opacity:0.81142853;fill:url(#linearGradient4242);fill-opacity:1;fill-rule:evenodd;stroke:none"
         d="m 24.267434,44.068617 c 0,0 0,-2.436829 0,-2.436829 1.115014,1.931262 5.039811,2.436829 7.859051,2.436829 0,0 -7.859051,0 -7.859051,0 z"
         id="path4194"
         sodipodi:nodetypes="cscc"
         inkscape:connector-curvature="0" />
      <path
         style="fill:#ffffff;fill-opacity:1;fill-rule:evenodd;stroke:none"
         d="m 46.706006,37.320922 c 0.03859,0.759313 -0.251492,1.406787 -0.803137,1.423741 0,0 -23.155712,0 -23.155712,0 -0.783161,0 -1.134581,-0.197393 -1.265984,-0.527312 0.05574,0.573647 0.501653,1.001893 1.265984,1.001893 0,-1e-6 23.155712,0 23.155712,0 0.653634,-0.02009 1.064764,-0.865042 0.82139,-1.819225 l -0.01826,-0.0791 z"
         id="path4201"
         sodipodi:nodetypes="cccccccc"
         inkscape:connector-curvature="0" />
      <path
         style="opacity:0.69142857;color:#000000;fill:url(#linearGradient4272);fill-opacity:1;fill-rule:evenodd;stroke:none;stroke-width:2;marker:none;visibility:visible;display:inline;overflow:visible"
         d="m 26.157102,27.921987 c -0.02799,0.121688 -0.113899,0.234965 -0.113899,0.360681 0,0.576243 0.358999,1.08704 0.816278,1.575608 0.145954,-0.0936 0.221796,-0.21529 0.379665,-0.303732 -0.571203,-0.495692 -0.943631,-1.04276 -1.082044,-1.632557 z m 16.192688,0 c -0.138944,0.589006 -0.511492,1.13743 -1.082044,1.632557 0.166532,0.0933 0.245408,0.223692 0.398648,0.322715 0.460008,-0.490014 0.797295,-1.016312 0.797295,-1.594591 0,-0.125716 -0.08601,-0.238993 -0.113899,-0.360681 z m 1.328825,5.12547 c -0.372855,2.454218 -4.433638,4.404107 -9.434661,4.404107 -4.988641,1e-6 -9.026992,-1.9395 -9.415677,-4.385124 -0.01966,0.11975 -0.07593,0.238054 -0.07593,0.360681 0,2.622994 4.245622,4.764789 9.49161,4.764789 5.245988,0 9.510593,-2.141795 9.510594,-4.764789 0,-0.129343 -0.05409,-0.253528 -0.07593,-0.379664 z"
         id="path4211"
         inkscape:connector-curvature="0" />
      <path
         sodipodi:type="arc"
         style="color:#000000;fill:#ffffff;fill-opacity:0.45762706;fill-rule:evenodd;stroke:none;stroke-width:2;marker:none;visibility:visible;display:inline;overflow:visible"
         id="path4224"
         sodipodi:cx="7.2036505"
         sodipodi:cy="25.593554"
         sodipodi:rx="1.3700194"
         sodipodi:ry="1.016466"
         d="m 8.5736699,25.593554 c 0,0.561378 -0.6133786,1.016466 -1.3700194,1.016466 -0.7566409,0 -1.3700195,-0.455088 -1.3700195,-1.016466 0,-0.561379 0.6133786,-1.016466 1.3700195,-1.016466 0.7566408,0 1.3700194,0.455087 1.3700194,1.016466 z"
         transform="matrix(0.60746306,0,0,0.60746306,19.547685,21.859828)" />
      <path
         transform="matrix(0.60746306,0,0,0.60746306,40.12772,21.806134)"
         d="m 8.5736699,25.593554 c 0,0.561378 -0.6133786,1.016466 -1.3700194,1.016466 -0.7566409,0 -1.3700195,-0.455088 -1.3700195,-1.016466 0,-0.561379 0.6133786,-1.016466 1.3700195,-1.016466 0.7566408,0 1.3700194,0.455087 1.3700194,1.016466 z"
         sodipodi:ry="1.016466"
         sodipodi:rx="1.3700194"
         sodipodi:cy="25.593554"
         sodipodi:cx="7.2036505"
         id="path4226"
         style="color:#000000;fill:#ffffff;fill-opacity:0.45762706;fill-rule:evenodd;stroke:none;stroke-width:2;marker:none;visibility:visible;display:inline;overflow:visible"
         sodipodi:type="arc" />
      <path
         sodipodi:nodetypes="cccsccccccccc"
         id="path4252"
         d="m 26.56639,26.864681 c -0.365506,0 -0.603084,0.1697 -0.749285,0.493435 -1e-6,0 -3.896885,10.078251 -3.896885,10.078251 0,0 -0.146202,0.392733 -0.146202,1.041691 0,0 0,5.64339 0,5.64339 0,0.822955 0.269747,0.988281 0.96859,0.988281 l 22.893402,0 c 0.803751,0 0.932041,-0.192199 0.932041,-1.116208 l 0,-5.64339 c 0,0 0.06197,-0.45055 -0.05482,-0.767562 L 42.508104,27.37356 c -0.107911,-0.299368 -0.334501,-0.501916 -0.619943,-0.508879 l -15.321771,0 z"
         style="fill:none;stroke:url(#linearGradient4260);stroke-width:0.60746318;stroke-linecap:round;stroke-linejoin:round;stroke-miterlimit:4;stroke-opacity:1;stroke-dasharray:none"
         inkscape:connector-curvature="0" />
      <path
         id="path4282"
         d="m 44.096246,40.844498 0,3.050032"
         style="fill:none;stroke:#ffffff;stroke-width:0.60746336px;stroke-linecap:square;stroke-linejoin:miter;stroke-opacity:0.42372885"
         inkscape:connector-curvature="0" />
      <path
         style="fill:none;stroke:#ffffff;stroke-width:0.60746336px;stroke-linecap:square;stroke-linejoin:miter;stroke-opacity:0.42372885"
         d="m 42.88132,40.88081 0,3.050033"
         id="path4284"
         inkscape:connector-curvature="0" />
      <path
         id="path4286"
         d="m 41.666394,40.88081 0,3.050033"
         style="fill:none;stroke:#ffffff;stroke-width:0.60746336px;stroke-linecap:square;stroke-linejoin:miter;stroke-opacity:0.42372885"
         inkscape:connector-curvature="0" />
      <path
         style="fill:none;stroke:#ffffff;stroke-width:0.60746336px;stroke-linecap:square;stroke-linejoin:miter;stroke-opacity:0.42372885"
         d="m 40.451467,40.88081 0,3.050033"
         id="path4288"
         inkscape:connector-curvature="0" />
      <path
         id="path4290"
         d="m 39.236541,40.88081 0,3.050033"
         style="fill:none;stroke:#ffffff;stroke-width:0.60746336px;stroke-linecap:square;stroke-linejoin:miter;stroke-opacity:0.42372885"
         inkscape:connector-curvature="0" />
      <path
         style="fill:none;stroke:#ffffff;stroke-width:0.60746336px;stroke-linecap:square;stroke-linejoin:miter;stroke-opacity:0.42372885"
         d="m 38.021615,40.88081 0,3.050033"
         id="path4292"
         inkscape:connector-curvature="0" />
      <path
         style="opacity:0.09714284;fill:none;stroke:#000000;stroke-width:0.60746336px;stroke-linecap:square;stroke-linejoin:miter;stroke-opacity:1"
         d="m 43.488783,40.87481 0,3.050032"
         id="path4294"
         inkscape:connector-curvature="0" />
      <path
         id="path4296"
         d="m 42.273857,40.911122 0,3.050033"
         style="opacity:0.09714284;fill:none;stroke:#000000;stroke-width:0.60746336px;stroke-linecap:square;stroke-linejoin:miter;stroke-opacity:1"
         inkscape:connector-curvature="0" />
      <path
         style="opacity:0.09714284;fill:none;stroke:#000000;stroke-width:0.60746336px;stroke-linecap:square;stroke-linejoin:miter;stroke-opacity:1"
         d="m 41.058931,40.911122 0,3.050033"
         id="path4298"
         inkscape:connector-curvature="0" />
      <path
         id="path4300"
         d="m 39.844004,40.911122 0,3.050033"
         style="opacity:0.09714284;fill:none;stroke:#000000;stroke-width:0.60746336px;stroke-linecap:square;stroke-linejoin:miter;stroke-opacity:1"
         inkscape:connector-curvature="0" />
      <path
         style="opacity:0.09714284;fill:none;stroke:#000000;stroke-width:0.60746336px;stroke-linecap:square;stroke-linejoin:miter;stroke-opacity:1"
         d="m 38.629078,40.911122 0,3.050033"
         id="path4302"
         inkscape:connector-curvature="0" />
      <path
         style="opacity:0.43999999;fill:#ffffff;fill-opacity:1;fill-rule:evenodd;stroke:none"
         d="m 24.277763,40.697695 0,3.36003 7.631255,0 -7.422439,-0.208816 -0.208816,-3.151214 z"
         id="path4572"
         inkscape:connector-curvature="0" />
      <path
         transform="matrix(0.63043428,0,0,0.64436462,18.502079,20.48003)"
         d="m 39.875,19.5625 c 0,3.693404 -6.659764,6.6875 -14.875,6.6875 -8.215236,0 -14.875,-2.994096 -14.875,-6.6875 0,-3.693404 6.659764,-6.6875 14.875,-6.6875 8.215236,0 14.875,2.994096 14.875,6.6875 z"
         sodipodi:ry="6.6875"
         sodipodi:rx="14.875"
         sodipodi:cy="19.5625"
         sodipodi:cx="25"
         id="path2545"
         style="opacity:0.20571427;color:#000000;fill:url(#linearGradient2553);fill-opacity:1;fill-rule:evenodd;stroke:none;stroke-width:0.93365198;marker:none;visibility:visible;display:inline;overflow:visible"
         sodipodi:type="arc" />
      <path
         sodipodi:type="arc"
         style="opacity:0.14117647;color:#000000;fill:url(#radialGradient8668);fill-opacity:1;fill-rule:evenodd;stroke:none;stroke-width:1;marker:none;visibility:visible;display:inline;overflow:visible"
         id="path8660"
         sodipodi:cx="24.837126"
         sodipodi:cy="36.421127"
         sodipodi:rx="15.644737"
         sodipodi:ry="8.3968935"
         d="m 40.481863,36.421127 c 0,4.637477 -7.004387,8.396894 -15.644737,8.396894 -8.64035,0 -15.6447375,-3.759417 -15.6447375,-8.396894 0,-4.637476 7.0043875,-8.396893 15.6447375,-8.396893 8.64035,0 15.644737,3.759417 15.644737,8.396893 z"
         transform="matrix(0.68654868,0,0,-0.46142955,17.118978,51.239026)" />
      <g
         transform="matrix(0,-1,1,0,5.2142858,99.250003)"
         id="g3347">
        <path
           inkscape:connector-curvature="0"
           style="color:#000000;fill:#73d216;fill-opacity:1;fill-rule:nonzero;stroke:url(#linearGradient3352);stroke-width:0.60746294;stroke-linecap:butt;stroke-linejoin:miter;stroke-miterlimit:4;stroke-opacity:1;stroke-dasharray:none;stroke-dashoffset:0;marker:none;visibility:visible;display:block;overflow:visible"
           d="m 63.829321,21.588418 c -0.625991,18.965319 15.513492,15.967961 15.416784,6.10288 l 4.442325,0 -6.911519,-7.888504 -7.248386,7.888504 c 0,0 4.581141,0 4.581141,0 0.277649,6.663485 -10.15534,8.613009 -10.280345,-6.10288 z"
           id="path1432"
           sodipodi:nodetypes="ccccccc" />
        <path
           inkscape:connector-curvature="0"
           sodipodi:nodetypes="ccccccc"
           id="path2177"
           d="m 66.539068,31.751936 c 2.880693,5.554724 12.427555,3.879599 12.208424,-4.540961 l 3.83757,0 c 0,0 -5.810885,-6.656201 -5.810885,-6.656201 l -6.133233,6.656201 c 0,0 3.92217,0 3.92217,0 0.16502,7.031525 -6.044898,6.709351 -8.024046,4.540961 z"
           style="opacity:0.47159095;color:#000000;fill:#73d216;stroke:url(#linearGradient3354);stroke-width:0.60746264;stroke-linecap:butt;stroke-linejoin:miter;stroke-miterlimit:10;stroke-opacity:1;stroke-dasharray:none;stroke-dashoffset:0;marker:none;visibility:visible;display:block;overflow:visible" />
        <path
           inkscape:connector-curvature="0"
           style="opacity:0.49431817;color:#000000;fill:#73d216;fill-opacity:1;fill-rule:nonzero;stroke:none;stroke-width:0.9999997;marker:none;visibility:visible;display:inline;overflow:visible"
           d="m 83.003105,27.434388 -1.205313,-1.546425 c -3.286395,0.921092 -4.790545,-1.657974 -9.52119,-1.051998 l -2.345589,2.678326 4.365514,-0.05029 c 0.02961,7.196256 -7.344323,6.781657 -9.35809,1.539942 2.313192,9.044487 13.889065,7.788537 14.125978,-1.510325 l 3.93869,-0.05923 z"
           id="path4989"
           sodipodi:nodetypes="cccccccc" />
      </g>
    </g>
  </g>
</svg>
