<?xml version="1.0" encoding="UTF-8" standalone="no"?>
<!-- Created with Inkscape (http://www.inkscape.org/) -->

<svg
   xmlns:dc="http://purl.org/dc/elements/1.1/"
   xmlns:cc="http://creativecommons.org/ns#"
   xmlns:rdf="http://www.w3.org/1999/02/22-rdf-syntax-ns#"
   xmlns:svg="http://www.w3.org/2000/svg"
   xmlns="http://www.w3.org/2000/svg"
   xmlns:sodipodi="http://sodipodi.sourceforge.net/DTD/sodipodi-0.dtd"
   xmlns:inkscape="http://www.inkscape.org/namespaces/inkscape"
   width="48px"
   height="48px"
   id="svg2985"
   version="1.1"
   inkscape:version="0.48.2 r9819"
   sodipodi:docname="synapse_detection.svg">
  <defs
     id="defs2987">
    <filter
       id="filter3058"
       inkscape:label="Cross-smooth"
       inkscape:menu="Blurs"
       inkscape:menu-tooltip="Blur inner borders and intersections"
       color-interpolation-filters="sRGB">
      <feGaussianBlur
         id="feGaussianBlur3060"
         stdDeviation="0.20000000000000001" />
      <feColorMatrix
         id="feColorMatrix3062"
         result="fbSourceGraphic"
         values="1 0 0 0 0 0 1 0 0 0 0 0 1 0 0 0 0 0 6 -2.5 " />
    </filter>
    <filter
       id="filter3099"
       inkscape:label="Cross-smooth"
       inkscape:menu="Blurs"
       inkscape:menu-tooltip="Blur inner borders and intersections"
       color-interpolation-filters="sRGB">
      <feGaussianBlur
         id="feGaussianBlur3101"
         stdDeviation="0.20000000000000001" />
      <feColorMatrix
         id="feColorMatrix3103"
         result="fbSourceGraphic"
         values="1 0 0 0 0 0 1 0 0 0 0 0 1 0 0 0 0 0 6 -2.5 " />
    </filter>
  </defs>
  <sodipodi:namedview
     id="base"
     pagecolor="#ffffff"
     bordercolor="#666666"
     borderopacity="1.0"
     inkscape:pageopacity="0.0"
     inkscape:pageshadow="2"
     inkscape:zoom="1.75"
     inkscape:cx="95.375331"
     inkscape:cy="89.823761"
     inkscape:current-layer="layer1"
     showgrid="true"
     inkscape:grid-bbox="true"
     inkscape:document-units="px"
     inkscape:window-width="1920"
     inkscape:window-height="1113"
     inkscape:window-x="1680"
     inkscape:window-y="22"
     inkscape:window-maximized="1" />
  <metadata
     id="metadata2990">
    <rdf:RDF>
      <cc:Work
         rdf:about="">
        <dc:format>image/svg+xml</dc:format>
        <dc:type
           rdf:resource="http://purl.org/dc/dcmitype/StillImage" />
        <dc:title></dc:title>
      </cc:Work>
    </rdf:RDF>
  </metadata>
  <g
     id="layer1"
     inkscape:label="Layer 1"
     inkscape:groupmode="layer">
    <g
       id="g3064"
       transform="matrix(1.1771492,0,0,1.1376722,-4.800497,-3.4210202)">
      <path
         style="fill:#abd4f1"
         d="m 11.348126,42.86434 c 2e-6,-0.07656 -0.643085,-0.769438 -1.4290816,-1.539726 C 8.9327832,40.358061 8.3930107,39.725216 8.1770738,39.282278 7.942931,38.801994 7.7753761,38.613577 7.5113141,38.533625 7.0864583,38.40499 4.4512931,35.55941 4.3027747,35.068887 c -0.09221,-0.304548 0.3136635,-1.703236 0.7019952,-2.419167 0.097332,-0.179438 0.1504452,-0.548272 0.1180325,-0.81963 -0.032412,-0.271359 0.00225,-0.554561 0.077027,-0.629337 0.074777,-0.07478 0.177558,-0.364636 0.2284017,-0.64413 0.050844,-0.279494 0.136149,-0.617201 0.1895665,-0.75046 0.053418,-0.133259 0.1716449,-0.57506 0.2627276,-0.98178 0.2410146,-1.076227 0.8846539,-2.840962 1.0504381,-2.880098 0.078443,-0.01852 0.3649884,-0.414617 0.6367695,-0.880221 1.5715738,-2.692352 4.8111462,-3.404862 7.5870922,-1.668702 0.597897,0.373942 0.781887,0.40495 1.304812,0.219907 1.202791,-0.425621 1.886247,0.357151 1.194615,1.368209 -0.543859,0.795037 0.995514,2.044579 1.678014,1.362079 0.417597,-0.417597 0.951779,-0.427629 1.35398,-0.02543 0.424174,0.424173 0.387222,0.773241 -0.137384,1.297847 -0.446088,0.446088 -0.446088,0.446088 0.493313,1.260312 1.241093,1.075714 1.3771,1.12323 1.852986,0.647343 0.488037,-0.488037 0.914745,-0.536509 1.294852,-0.147089 0.279705,0.286561 0.476935,0.956681 0.318709,1.082867 -0.740826,0.590804 -0.13024,1.4035 0.690244,0.918721 0.869191,-0.513558 1.849851,-0.105519 1.894428,0.788247 0.02255,0.452205 -0.435113,1.021262 -0.945683,1.175849 -0.262033,0.07934 -0.254898,0.244218 0.04765,1.100759 0.85483,2.420104 -0.748247,6.266947 -3.018392,7.243121 -0.225406,0.09693 -0.603073,0.288456 -0.83926,0.425621 -0.952169,0.552976 -2.110725,0.988924 -2.858875,1.075755 -0.434777,0.05046 -0.817767,0.119013 -0.851091,0.152336 -0.07707,0.07707 -2.776707,0.709494 -4.186395,0.980715 -0.590626,0.113635 -1.129412,0.262157 -1.197303,0.330048 -0.131249,0.13125 -1.89592,-1.533197 -1.89592,-1.788242 z m 5.442946,-17.258565 c 0.46994,0.308853 0.418651,0.227806 -0.367538,-0.580772 -0.503554,-0.5179 -0.995865,-0.920317 -1.096753,-0.8965 -0.221815,0.05236 0.679005,0.961168 1.464288,1.477276 z m 3.061192,2.821937 c 0.61444,0.365171 -0.739944,-1.001219 -1.464288,-1.477276 -0.487246,-0.320227 -0.460692,-0.273561 0.24618,0.432643 0.435804,0.435351 0.983935,0.905454 1.218112,1.044629 z m 6.165523,4.226478 c 0.408277,10e-7 0.674085,-0.554709 0.39807,-0.830724 -0.237764,-0.237764 -0.750723,-0.04725 -0.861959,0.320138 -0.115082,0.380088 0.0035,0.510587 0.463889,0.510586 z m -2.239886,-2.460206 c 0.307825,-0.137093 0.308951,-0.340249 0.0026,-0.476668 -0.137592,-0.06128 -0.28442,-0.0043 -0.346163,0.134339 -0.137738,0.309272 0.03384,0.480252 0.343492,0.342361 z m -9.933216,-9.403025 c 0,-0.668627 0.974056,-1.020574 1.460161,-0.527588 0.505148,0.512298 0.307154,1.190227 -0.390028,1.335446 -0.484595,0.100939 -1.070133,-0.341091 -1.070133,-0.807858 z m 2.464715,1.789239 c 0.06809,-0.06809 0.100863,-0.279054 0.07282,-0.4688 -0.04301,-0.290985 0.0078,-0.359205 0.324558,-0.435779 0.387208,-0.0936 0.335754,-0.234183 -0.288498,-0.78822 -0.119241,-0.105823 -0.111458,-0.133271 0.0231,-0.08148 0.144512,0.05563 0.230981,-0.01457 0.300411,-0.243875 0.116881,-0.386034 0.823957,-0.75197 1.047448,-0.542092 0.280132,0.263071 -0.123575,-0.718472 -0.625665,-1.521195 -0.766768,-1.22588 -0.592287,-1.601676 0.636117,-1.370062 0.83143,0.156764 1.125495,0.601896 1.064134,1.610796 -0.0246,0.404501 0.04845,0.828638 0.162339,0.942526 0.168676,0.168676 0.13185,0.259758 -0.198603,0.491217 -0.270481,0.189451 -0.405662,0.403625 -0.405675,0.642622 -1e-6,0.212298 -0.154295,0.484035 -0.378383,0.666389 -0.222165,0.180791 -0.339495,0.3858 -0.284191,0.496565 0.05181,0.103757 0.149353,0.13349 0.21676,0.06608 0.06741,-0.06741 0.168115,-0.07701 0.223787,-0.02134 0.19363,0.19363 -0.818585,0.680452 -1.414818,0.680452 -0.329697,0 -0.543736,-0.05571 -0.475644,-0.123806 z M 13.766938,19.2961 c -0.08547,-0.22508 -0.04028,-0.468839 0.115889,-0.625006 0.141799,-0.141799 0.186614,-0.325415 0.100451,-0.411578 -0.221916,-0.221916 0.358006,-1.048032 0.699557,-0.99654 0.147166,0.02219 0.443145,-0.01319 0.657731,-0.07862 0.214586,-0.06543 0.464732,-0.04438 0.555881,0.04676 0.25446,0.25446 -0.22149,0.614693 -0.700623,0.530281 -0.41406,-0.07295 -0.430597,-0.05974 -0.561272,0.448135 -0.07405,0.287814 -0.241339,0.629993 -0.371745,0.7604 -0.181067,0.181067 -0.165684,0.312743 0.06509,0.557161 0.176262,0.186671 0.20455,0.276257 0.06789,0.214954 -0.128868,-0.05781 -0.291551,-0.09877 -0.361516,-0.09103 -0.06996,0.0077 -0.190265,-0.151975 -0.267334,-0.35492 z m 7.763527,7.943672 c -1e-6,-0.600845 1.416841,-1.147599 1.850382,-0.714058 0.0994,0.0994 0.30894,-0.0122 0.634862,-0.338117 0.565251,-0.565251 0.906617,-0.609419 1.342351,-0.173685 0.608285,0.608285 -0.09618,1.522369 -1.024277,1.329053 -0.366508,-0.07634 -0.565848,-0.0025 -0.902774,0.33443 -0.621295,0.621294 -1.900545,0.326733 -1.900544,-0.437623 z m -8.353753,-9.21567 c 0.02355,-0.253445 0.0773,-0.289083 0.291854,-0.193529 0.365995,0.163 0.344096,0.56597 -0.02887,0.531306 -0.226523,-0.02105 -0.285392,-0.09666 -0.262982,-0.337777 z M 24.84833,29.546873 c 0.158338,-0.1072 0.463771,-0.163921 0.678742,-0.12605 0.214972,0.03787 0.515249,-0.05553 0.667284,-0.207567 0.152036,-0.152035 0.32734,-0.225516 0.389565,-0.16329 0.06223,0.06222 0.205459,0.02727 0.318299,-0.07768 0.199179,-0.185263 0.02893,0.424522 -0.209901,0.751764 -0.05251,0.07194 -0.14424,0.261522 -0.203852,0.421283 -0.132101,0.354026 -0.640313,0.431609 -0.929956,0.141965 -0.113159,-0.113159 -0.288121,-0.186298 -0.388804,-0.16253 -0.370684,0.08751 -0.626023,-0.371639 -0.321377,-0.577895 z m 5.299409,4.763967 c 0.09334,-0.09334 0.119764,-0.219648 0.05872,-0.280687 -0.223499,-0.223499 0.304581,-0.829304 0.74192,-0.851116 0.630417,-0.03144 0.90756,0.328696 0.537625,0.698631 -0.16622,0.16622 -0.310364,0.465554 -0.320321,0.665188 -0.01,0.199634 -0.133964,0.414571 -0.275572,0.477637 -0.335954,0.149621 -0.983064,-0.468965 -0.742376,-0.709653 z M 20.251771,24.060287 c 0.224915,-0.742842 1.437726,-0.598825 1.459174,0.173271 0.0044,0.160009 0.08445,0.367292 0.177787,0.46063 0.305377,0.305377 -0.336594,0.752966 -0.747298,0.521023 -0.706844,-0.399188 -1.002338,-0.782786 -0.889663,-1.154924 z m 7.140916,6.873247 c 0.198343,-0.469265 0.818368,-0.935257 1.001174,-0.752451 0.286499,0.286499 0.182481,0.644083 -0.173448,0.596269 -0.157897,-0.02121 -0.357864,0.06884 -0.444375,0.200122 -0.12112,0.183796 -0.463044,0.144604 -0.383351,-0.04394 z M 14.722175,16.39338 c 0.130253,-0.05801 0.251934,-0.216343 0.270403,-0.351851 0.0588,-0.431401 1.193978,-1.271537 1.368236,-1.012621 0.176816,0.262718 -0.452953,1.008973 -0.903732,1.070892 -0.222377,0.03055 -0.231871,0.05307 -0.04223,0.100174 0.191005,0.04745 0.174313,0.08324 -0.07613,0.163276 -0.17643,0.05638 -0.361601,0.188965 -0.411493,0.294637 -0.04989,0.105671 -0.169725,0.113117 -0.266296,0.01655 -0.110249,-0.110249 -0.08746,-0.214828 0.06124,-0.281054 z m 4.714595,4.159317 c -0.02452,-0.269281 0.01844,-0.429962 0.09548,-0.35707 0.07703,0.07289 0.356045,-0.01522 0.620027,-0.1958 0.863197,-0.590486 1.91279,0.445094 1.186862,1.171022 -0.602263,0.602263 -1.827493,0.204141 -1.90237,-0.618148 z m 7.461583,7.328089 c -0.04143,-0.235164 -0.0075,-0.495411 0.07543,-0.578327 0.501033,-0.501033 0.286848,-1.081294 -0.833453,-2.257951 -0.59714,-0.62718 -1.314738,-1.429896 -1.594662,-1.783811 -0.496475,-0.627712 -0.521102,-0.63845 -1.004734,-0.438123 -0.930358,0.385367 -1.461869,-0.325236 -1.030113,-1.377209 0.192551,-0.469154 0.163953,-0.548324 -0.486083,-1.34563 -0.379869,-0.46593 -0.76806,-0.975719 -0.862646,-1.132863 -0.151353,-0.251454 -0.226944,-0.230745 -0.630334,0.172645 -0.252099,0.252099 -0.419021,0.4977 -0.370937,0.545783 0.04808,0.04808 0.03028,0.14457 -0.03956,0.214414 -0.09085,0.09085 -0.134776,0.04323 -0.154347,-0.167334 -0.02112,-0.22725 -0.114551,-0.31448 -0.409977,-0.382765 -0.728351,-0.168351 -0.563833,-1.460169 0.208698,-1.638732 0.309041,-0.07143 0.312125,-0.155429 0.02895,-0.788543 -0.174316,-0.389727 -0.326655,-0.99394 -0.338531,-1.342695 -0.01188,-0.348755 -0.0618,-0.634101 -0.110938,-0.634102 -0.303465,10e-7 0.04143,-1.760849 0.454295,-2.319383 1.917392,-2.593902 4.982783,-3.8759165 10.758973,-4.4996428 0.501605,-0.054164 1.021701,-0.1415238 1.155769,-0.1941326 0.134067,-0.052609 0.650044,-0.1475715 1.146617,-0.2110278 1.842511,-0.2354536 3.937668,-1.1911951 4.584012,-2.0910754 1.712307,-2.3839762 1.682081,-2.3880814 4.750703,0.6453185 2.827063,2.7946143 2.827063,2.7946143 1.373951,4.0892421 -1.616683,1.440361 -2.117346,2.142809 -2.198482,3.084552 -0.0276,0.320302 -0.291354,0.989662 -0.586129,1.487466 -0.434083,0.733066 -0.628175,1.442147 -1.021148,3.73061 -0.923476,5.377821 -1.852765,8.355002 -2.731008,8.749391 -0.216847,0.09738 -0.555902,0.339716 -0.753454,0.538528 -1.47176,1.48115 -4.452603,1.799201 -6.268606,0.668857 -0.682407,-0.424753 -0.766976,-0.433633 -1.285709,-0.134994 -0.883635,0.508714 -1.676236,0.244678 -1.826538,-0.608466 z m 0.976699,0.321576 c 0.389771,-0.03623 0.627936,-0.399857 0.532,-0.812263 -0.05877,-0.25263 -0.138803,-0.312558 -0.353837,-0.264951 -0.395381,0.08753 -0.78672,0.512776 -0.687259,0.746803 0.137377,0.323238 0.193607,0.359733 0.509096,0.330411 z m -1.810413,-3.739013 c 0.744383,0.334277 1.049858,-0.972653 0.32832,-1.404668 -0.680374,-0.407368 -1.316014,-0.09931 -1.073396,0.520205 0.260884,0.666164 0.262057,0.667556 0.745076,0.884463 z m -1.574504,-2.169476 c 0.15599,0.01057 -0.29738,-0.839379 -0.619616,-1.161615 -0.611764,-0.611764 -0.906475,-0.630633 -0.629085,-0.04028 0.210828,0.448696 0.974023,1.183282 1.248701,1.201892 z"
         id="path3078"
         inkscape:connector-curvature="0" />
      <path
         style="fill:#90b6d3"
         d="m 11.348126,42.86434 c 2e-6,-0.07656 -0.643085,-0.769438 -1.4290816,-1.539726 C 8.9327832,40.358061 8.3930107,39.725216 8.1770738,39.282278 7.942931,38.801994 7.7753761,38.613577 7.5113141,38.533625 7.0864583,38.40499 4.4512931,35.55941 4.3027747,35.068887 c -0.09221,-0.304548 0.3136635,-1.703236 0.7019952,-2.419167 0.097332,-0.179438 0.1504452,-0.548272 0.1180325,-0.81963 -0.032412,-0.271359 0.00225,-0.554561 0.077027,-0.629337 0.074777,-0.07478 0.177558,-0.364636 0.2284017,-0.64413 0.050844,-0.279494 0.136149,-0.617201 0.1895665,-0.75046 0.053418,-0.133259 0.1716449,-0.57506 0.2627276,-0.98178 0.2410146,-1.076227 0.8846539,-2.840962 1.0504381,-2.880098 0.078443,-0.01852 0.3649884,-0.414617 0.6367695,-0.880221 1.5715738,-2.692352 4.8111462,-3.404862 7.5870922,-1.668702 0.597897,0.373942 0.781887,0.40495 1.304812,0.219907 1.202791,-0.425621 1.886247,0.357151 1.194615,1.368209 -0.543859,0.795037 0.995514,2.044579 1.678014,1.362079 0.417597,-0.417597 0.951779,-0.427629 1.35398,-0.02543 0.424174,0.424173 0.387222,0.773241 -0.137384,1.297847 -0.446088,0.446088 -0.446088,0.446088 0.493313,1.260312 1.241093,1.075714 1.3771,1.12323 1.852986,0.647343 0.488037,-0.488037 0.914745,-0.536509 1.294852,-0.147089 0.279705,0.286561 0.476935,0.956681 0.318709,1.082867 -0.740826,0.590804 -0.13024,1.4035 0.690244,0.918721 0.869191,-0.513558 1.849851,-0.105519 1.894428,0.788247 0.02255,0.452205 -0.435113,1.021262 -0.945683,1.175849 -0.262033,0.07934 -0.254898,0.244218 0.04765,1.100759 0.85483,2.420104 -0.748247,6.266947 -3.018392,7.243121 -0.225406,0.09693 -0.603073,0.288456 -0.83926,0.425621 -0.952169,0.552976 -2.110725,0.988924 -2.858875,1.075755 -0.434777,0.05046 -0.817767,0.119013 -0.851091,0.152336 -0.07707,0.07707 -2.776707,0.709494 -4.186395,0.980715 -0.590626,0.113635 -1.129412,0.262157 -1.197303,0.330048 -0.131249,0.13125 -1.89592,-1.533197 -1.89592,-1.788242 z m 13.068283,-2.825634 c 2.612403,-2.603873 2.381399,-5.89486 -0.583964,-8.3193 -1.530171,-1.251049 -5.186057,-4.646092 -6.693921,-6.216322 -1.142021,-1.189254 -2.667329,-2.254087 -3.366684,-2.350313 -0.459566,-0.06324 0.453521,0.890574 2.399763,2.506789 3.356722,2.787515 7.516638,6.543493 7.644613,6.902302 0.07234,0.20283 0.271677,0.732946 0.442963,1.178035 1.122217,2.916096 0.849518,5.15159 -0.835048,6.845467 -0.446336,0.448802 -0.546389,0.613015 -0.34746,0.57027 0.153659,-0.03302 0.75654,-0.535635 1.339738,-1.116928 z m 1.668543,-7.352363 c 0.36529,-0.103141 0.56635,-0.627432 0.330905,-0.862877 -0.237764,-0.237764 -0.750723,-0.04725 -0.861959,0.320138 -0.118688,0.392003 0.137524,0.653855 0.531059,0.542735 z m -2.307051,-2.492359 c 0.307825,-0.137093 0.308951,-0.340249 0.0026,-0.476668 -0.137592,-0.06128 -0.28442,-0.0043 -0.346163,0.134339 -0.137738,0.309272 0.03384,0.480252 0.343492,0.342361 z m -9.933216,-9.403025 c 0,-0.668627 0.974056,-1.020574 1.460161,-0.527588 0.505148,0.512298 0.307154,1.190227 -0.390028,1.335446 -0.484595,0.100939 -1.070133,-0.341091 -1.070133,-0.807858 z m 2.464715,1.789239 c 0.06809,-0.06809 0.100863,-0.279054 0.07282,-0.4688 -0.04301,-0.290985 0.0078,-0.359205 0.324558,-0.435779 0.387208,-0.0936 0.335754,-0.234183 -0.288498,-0.78822 -0.119241,-0.105823 -0.111458,-0.133271 0.0231,-0.08148 0.144512,0.05563 0.230981,-0.01457 0.300411,-0.243875 0.116881,-0.386034 0.823957,-0.75197 1.047448,-0.542092 0.280132,0.263071 -0.123575,-0.718472 -0.625665,-1.521195 -0.766768,-1.22588 -0.592287,-1.601676 0.636117,-1.370062 0.83143,0.156764 1.125495,0.601896 1.064134,1.610796 -0.0246,0.404501 0.04845,0.828638 0.162339,0.942526 0.168676,0.168676 0.13185,0.259758 -0.198603,0.491217 -0.270481,0.189451 -0.405662,0.403625 -0.405675,0.642622 -1e-6,0.212298 -0.154295,0.484035 -0.378383,0.666389 -0.222165,0.180791 -0.339495,0.3858 -0.284191,0.496565 0.05181,0.103757 0.149353,0.13349 0.21676,0.06608 0.06741,-0.06741 0.168115,-0.07701 0.223787,-0.02134 0.19363,0.19363 -0.818585,0.680452 -1.414818,0.680452 -0.329697,0 -0.543736,-0.05571 -0.475644,-0.123806 z M 13.766938,19.2961 c -0.08547,-0.22508 -0.04028,-0.468839 0.115889,-0.625006 0.141799,-0.141799 0.186614,-0.325415 0.100451,-0.411578 -0.221916,-0.221916 0.358006,-1.048032 0.699557,-0.99654 0.147166,0.02219 0.443145,-0.01319 0.657731,-0.07862 0.214586,-0.06543 0.464732,-0.04438 0.555881,0.04676 0.25446,0.25446 -0.22149,0.614693 -0.700623,0.530281 -0.41406,-0.07295 -0.430597,-0.05974 -0.561272,0.448135 -0.07405,0.287814 -0.241339,0.629993 -0.371745,0.7604 -0.181067,0.181067 -0.165684,0.312743 0.06509,0.557161 0.176262,0.186671 0.20455,0.276257 0.06789,0.214954 -0.128868,-0.05781 -0.291551,-0.09877 -0.361516,-0.09103 -0.06996,0.0077 -0.190265,-0.151975 -0.267334,-0.35492 z m 7.763527,7.943672 c -1e-6,-0.600845 1.416841,-1.147599 1.850382,-0.714058 0.0994,0.0994 0.30894,-0.0122 0.634862,-0.338117 0.565251,-0.565251 0.906617,-0.609419 1.342351,-0.173685 0.608285,0.608285 -0.09618,1.522369 -1.024277,1.329053 -0.366508,-0.07634 -0.565848,-0.0025 -0.902774,0.33443 -0.621295,0.621294 -1.900545,0.326733 -1.900544,-0.437623 z m -8.353753,-9.21567 c 0.02355,-0.253445 0.0773,-0.289083 0.291854,-0.193529 0.365995,0.163 0.344096,0.56597 -0.02887,0.531306 -0.226523,-0.02105 -0.285392,-0.09666 -0.262982,-0.337777 z M 24.84833,29.546873 c 0.158338,-0.1072 0.463771,-0.163921 0.678742,-0.12605 0.214972,0.03787 0.515249,-0.05553 0.667284,-0.207567 0.152036,-0.152035 0.32734,-0.225516 0.389565,-0.16329 0.06223,0.06222 0.205459,0.02727 0.318299,-0.07768 0.199179,-0.185263 0.02893,0.424522 -0.209901,0.751764 -0.05251,0.07194 -0.14424,0.261522 -0.203852,0.421283 -0.132101,0.354026 -0.640313,0.431609 -0.929956,0.141965 -0.113159,-0.113159 -0.288121,-0.186298 -0.388804,-0.16253 -0.370684,0.08751 -0.626023,-0.371639 -0.321377,-0.577895 z m 5.299409,4.763967 c 0.09334,-0.09334 0.119764,-0.219648 0.05872,-0.280687 -0.223499,-0.223499 0.304581,-0.829304 0.74192,-0.851116 0.630417,-0.03144 0.90756,0.328696 0.537625,0.698631 -0.16622,0.16622 -0.310364,0.465554 -0.320321,0.665188 -0.01,0.199634 -0.133964,0.414571 -0.275572,0.477637 -0.335954,0.149621 -0.983064,-0.468965 -0.742376,-0.709653 z M 20.251771,24.060287 c 0.224915,-0.742842 1.437726,-0.598825 1.459174,0.173271 0.0044,0.160009 0.08445,0.367292 0.177787,0.46063 0.305377,0.305377 -0.336594,0.752966 -0.747298,0.521023 -0.706844,-0.399188 -1.002338,-0.782786 -0.889663,-1.154924 z m 7.140916,6.873247 c 0.198343,-0.469265 0.818368,-0.935257 1.001174,-0.752451 0.286499,0.286499 0.182481,0.644083 -0.173448,0.596269 -0.157897,-0.02121 -0.357864,0.06884 -0.444375,0.200122 -0.12112,0.183796 -0.463044,0.144604 -0.383351,-0.04394 z M 14.722175,16.39338 c 0.130253,-0.05801 0.251934,-0.216343 0.270403,-0.351851 0.0588,-0.431401 1.193978,-1.271537 1.368236,-1.012621 0.176816,0.262718 -0.452953,1.008973 -0.903732,1.070892 -0.222377,0.03055 -0.231871,0.05307 -0.04223,0.100174 0.191005,0.04745 0.174313,0.08324 -0.07613,0.163276 -0.17643,0.05638 -0.361601,0.188965 -0.411493,0.294637 -0.04989,0.105671 -0.169725,0.113117 -0.266296,0.01655 -0.110249,-0.110249 -0.08746,-0.214828 0.06124,-0.281054 z m 4.714595,4.159317 c -0.02452,-0.269281 0.01844,-0.429962 0.09548,-0.35707 0.07703,0.07289 0.356045,-0.01522 0.620027,-0.1958 0.863197,-0.590486 1.91279,0.445094 1.186862,1.171022 -0.602263,0.602263 -1.827493,0.204141 -1.90237,-0.618148 z m 7.461583,7.328089 c -0.04143,-0.235164 -0.0075,-0.495411 0.07543,-0.578327 0.501033,-0.501033 0.286848,-1.081294 -0.833453,-2.257951 -0.59714,-0.62718 -1.314738,-1.429896 -1.594662,-1.783811 -0.496475,-0.627712 -0.521102,-0.63845 -1.004734,-0.438123 -0.930358,0.385367 -1.461869,-0.325236 -1.030113,-1.377209 0.192551,-0.469154 0.163953,-0.548324 -0.486083,-1.34563 -0.379869,-0.46593 -0.76806,-0.975719 -0.862646,-1.132863 -0.151353,-0.251454 -0.226944,-0.230745 -0.630334,0.172645 -0.252099,0.252099 -0.419021,0.4977 -0.370937,0.545783 0.04808,0.04808 0.03028,0.14457 -0.03956,0.214414 -0.09085,0.09085 -0.134776,0.04323 -0.154347,-0.167334 -0.02112,-0.22725 -0.114551,-0.31448 -0.409977,-0.382765 -0.728351,-0.168351 -0.563833,-1.460169 0.208698,-1.638732 0.309041,-0.07143 0.312125,-0.155429 0.02895,-0.788543 -0.174316,-0.389727 -0.326655,-0.99394 -0.338531,-1.342695 -0.01188,-0.348755 -0.0618,-0.634101 -0.110938,-0.634102 -0.303465,10e-7 0.04143,-1.760849 0.454295,-2.319383 1.917392,-2.593902 4.982783,-3.8759165 10.758973,-4.4996428 0.501605,-0.054164 1.021701,-0.1415238 1.155769,-0.1941326 0.134067,-0.052609 0.650044,-0.1475715 1.146617,-0.2110278 1.842511,-0.2354536 3.937668,-1.1911951 4.584012,-2.0910754 1.712307,-2.3839762 1.682081,-2.3880814 4.750703,0.6453185 2.827063,2.7946143 2.827063,2.7946143 1.373951,4.0892421 -1.616683,1.440361 -2.117346,2.142809 -2.198482,3.084552 -0.0276,0.320302 -0.291354,0.989662 -0.586129,1.487466 -0.434083,0.733066 -0.628175,1.442147 -1.021148,3.73061 -0.923476,5.377821 -1.852765,8.355002 -2.731008,8.749391 -0.216847,0.09738 -0.555902,0.339716 -0.753454,0.538528 -1.47176,1.48115 -4.452603,1.799201 -6.268606,0.668857 -0.682407,-0.424753 -0.766976,-0.433633 -1.285709,-0.134994 -0.883635,0.508714 -1.676236,0.244678 -1.826538,-0.608466 z m 1.097092,0.434039 c 0.169492,-0.01575 0.398913,-0.180682 0.51044,-0.366955 0.177676,-0.296748 0.29735,-0.30131 0.973509,-0.03711 0.77093,0.30123 0.77093,0.30123 0.477338,-0.145278 -0.360927,-0.548913 -0.320273,-0.867284 0.06194,-0.485071 0.355044,0.355044 0.745187,0.531181 0.879363,0.397005 0.21439,-0.21439 -0.321793,-1.024005 -1.848084,-2.790536 -2.434885,-2.818139 -3.57615,-3.842407 -6.34935,-5.698447 -0.588702,-0.394005 -1.28815,-1.008553 -1.746483,-1.534492 -0.764512,-0.87728 -0.764512,-0.87728 -0.417762,-0.205795 0.718711,1.391788 3.734878,5.171366 6.085388,7.625632 1.261444,1.317128 1.547622,1.873258 1.07278,2.084735 -0.603552,0.268798 -0.356678,1.217429 0.300921,1.156312 z m 9.506577,-2.18036 c 0.623044,-1.149403 1.153432,-3.237313 1.918868,-7.55377 0.784448,-4.423656 1.403219,-5.831413 3.504855,-7.973844 1.224998,-1.2487775 1.472267,-1.5466073 0.951584,-1.1461665 -0.386915,0.2975641 -1.241,0.9199175 -1.897967,1.3830085 -1.563273,1.101938 -2.694148,2.605398 -2.773841,3.68773 -0.01328,0.180409 -0.24616,0.758456 -0.517503,1.28455 -0.271344,0.526095 -0.505945,1.151252 -0.521336,1.389238 -0.03907,0.604054 -0.229295,1.412623 -0.540248,2.296318 -0.145769,0.41426 -0.259957,1.216482 -0.253752,1.782716 0.0062,0.566234 -0.03114,1.073991 -0.083,1.128349 -0.05185,0.05436 -0.160118,0.826515 -0.240581,1.715909 -0.08046,0.889393 -0.251789,1.72257 -0.380724,1.851506 -0.151562,0.151562 -0.158912,0.26806 -0.0208,0.329572 0.159365,0.07097 0.0556,0.299517 -0.408481,0.899698 -0.622113,0.804552 -0.622113,0.804552 0.131597,0.213185 0.51964,-0.407713 0.870983,-0.807714 1.131325,-1.287999 z"
         id="path3076"
         inkscape:connector-curvature="0" />
      <path
         style="fill:#d2b969"
         d="m 11.348126,42.86434 c 2e-6,-0.07656 -0.643085,-0.769438 -1.4290816,-1.539726 C 8.9327832,40.358061 8.3930107,39.725216 8.1770738,39.282278 7.942931,38.801994 7.7753761,38.613577 7.5113141,38.533625 7.0864583,38.40499 4.4512931,35.55941 4.3027747,35.068887 c -0.09221,-0.304548 0.3136635,-1.703236 0.7019952,-2.419167 0.097332,-0.179438 0.1504452,-0.548272 0.1180325,-0.81963 -0.032412,-0.271359 0.00225,-0.554561 0.077027,-0.629337 0.074777,-0.07478 0.177558,-0.364636 0.2284017,-0.64413 0.050844,-0.279494 0.136149,-0.617201 0.1895665,-0.75046 0.053418,-0.133259 0.1716449,-0.57506 0.2627276,-0.98178 0.2410146,-1.076227 0.8846539,-2.840962 1.0504381,-2.880098 0.078443,-0.01852 0.3649884,-0.414617 0.6367695,-0.880221 1.5715738,-2.692352 4.8111462,-3.404862 7.5870922,-1.668702 0.597897,0.373942 0.781887,0.40495 1.304812,0.219907 1.202791,-0.425621 1.886247,0.357151 1.194615,1.368209 -0.543859,0.795037 0.995514,2.044579 1.678014,1.362079 0.417597,-0.417597 0.951779,-0.427629 1.35398,-0.02543 0.424174,0.424173 0.387222,0.773241 -0.137384,1.297847 -0.446088,0.446088 -0.446088,0.446088 0.493313,1.260312 1.241093,1.075714 1.3771,1.12323 1.852986,0.647343 0.488037,-0.488037 0.914745,-0.536509 1.294852,-0.147089 0.279705,0.286561 0.476935,0.956681 0.318709,1.082867 -0.740826,0.590804 -0.13024,1.4035 0.690244,0.918721 0.869191,-0.513558 1.849851,-0.105519 1.894428,0.788247 0.02255,0.452205 -0.435113,1.021262 -0.945683,1.175849 -0.262033,0.07934 -0.254898,0.244218 0.04765,1.100759 0.85483,2.420104 -0.748247,6.266947 -3.018392,7.243121 -0.225406,0.09693 -0.603073,0.288456 -0.83926,0.425621 -0.952169,0.552976 -2.110725,0.988924 -2.858875,1.075755 -0.434777,0.05046 -0.817767,0.119013 -0.851091,0.152336 -0.07707,0.07707 -2.776707,0.709494 -4.186395,0.980715 -0.590626,0.113635 -1.129412,0.262157 -1.197303,0.330048 -0.131249,0.13125 -1.89592,-1.533197 -1.89592,-1.788242 z m 1.91641,1.315204 c 0.07916,-0.07916 0.465267,-0.176714 0.858016,-0.216787 0.734641,-0.07496 4.289994,-0.858288 4.401456,-0.96975 0.03431,-0.03431 0.363687,-0.102944 0.73194,-0.152511 3.659556,-0.492573 6.848608,-3.58916 6.922623,-6.721904 0.05448,-2.306004 -0.569738,-3.265439 -3.834687,-5.893977 -0.686192,-0.552438 -2.493478,-2.202338 -4.016192,-3.666444 -3.563561,-3.426405 -4.277517,-3.856337 -6.269275,-3.775256 -2.7020142,0.109994 -4.1072504,1.444524 -5.3389006,5.070265 -0.8901579,2.620454 -1.96574,7.402932 -1.7224307,7.658636 0.2594878,0.272703 0.5318008,-0.232505 0.7224877,-1.34039 0.085122,-0.494554 0.252126,-1.193049 0.3711202,-1.55221 0.1189942,-0.359162 0.3866494,-1.348224 0.5947899,-2.197916 0.2081395,-0.849692 0.6148327,-1.983998 0.9037614,-2.520681 0.2889287,-0.536682 0.5133295,-1.10485 0.4986681,-1.262593 -0.066957,-0.720435 1.6134073,-2.683232 2.553801,-2.98304 1.717439,-0.547538 3.113668,0.189296 7.449692,3.931432 4.821723,4.161313 5.76254,5.230804 5.862816,6.664676 0.01737,0.248426 0.08739,0.480951 0.155605,0.516724 0.06821,0.03577 0.145945,0.402645 0.172749,0.815275 0.0268,0.41263 0.133419,0.989319 0.236926,1.281532 0.364766,1.029775 -0.846937,2.938535 -2.598729,4.093701 -1.455525,0.959802 -1.723203,1.073324 -3.934671,1.66869 -0.7354,0.19798 -1.896899,0.51292 -2.581111,0.699864 -0.684211,0.186945 -1.555192,0.410565 -1.935513,0.496935 -0.548709,0.12461 -0.656119,0.192409 -0.520181,0.328346 0.09422,0.09422 0.236078,0.106544 0.315239,0.02738 z M 26.084952,32.686343 c 0.36529,-0.103141 0.56635,-0.627432 0.330905,-0.862877 -0.237764,-0.237764 -0.750723,-0.04725 -0.861959,0.320138 -0.118688,0.392003 0.137524,0.653855 0.531059,0.542735 z m -2.307051,-2.492359 c 0.307825,-0.137093 0.308951,-0.340249 0.0026,-0.476668 -0.137592,-0.06128 -0.28442,-0.0043 -0.346163,0.134339 -0.137738,0.309272 0.03384,0.480252 0.343492,0.342361 z m -9.933216,-9.403025 c 0,-0.668627 0.974056,-1.020574 1.460161,-0.527588 0.505148,0.512298 0.307154,1.190227 -0.390028,1.335446 -0.484595,0.100939 -1.070133,-0.341091 -1.070133,-0.807858 z m 2.464715,1.789239 c 0.06809,-0.06809 0.100863,-0.279054 0.07282,-0.4688 -0.04301,-0.290985 0.0078,-0.359205 0.324558,-0.435779 0.387208,-0.0936 0.335754,-0.234183 -0.288498,-0.78822 -0.119241,-0.105823 -0.111458,-0.133271 0.0231,-0.08148 0.144512,0.05563 0.230981,-0.01457 0.300411,-0.243875 0.116881,-0.386034 0.823957,-0.75197 1.047448,-0.542092 0.280132,0.263071 -0.123575,-0.718472 -0.625665,-1.521195 -0.766768,-1.22588 -0.592287,-1.601676 0.636117,-1.370062 0.83143,0.156764 1.125495,0.601896 1.064134,1.610796 -0.0246,0.404501 0.04845,0.828638 0.162339,0.942526 0.168676,0.168676 0.13185,0.259758 -0.198603,0.491217 -0.270481,0.189451 -0.405662,0.403625 -0.405675,0.642622 -1e-6,0.212298 -0.154295,0.484035 -0.378383,0.666389 -0.222165,0.180791 -0.339495,0.3858 -0.284191,0.496565 0.05181,0.103757 0.149353,0.13349 0.21676,0.06608 0.06741,-0.06741 0.168115,-0.07701 0.223787,-0.02134 0.19363,0.19363 -0.818585,0.680452 -1.414818,0.680452 -0.329697,0 -0.543736,-0.05571 -0.475644,-0.123806 z M 13.766938,19.2961 c -0.08547,-0.22508 -0.04028,-0.468839 0.115889,-0.625006 0.141799,-0.141799 0.186614,-0.325415 0.100451,-0.411578 -0.221916,-0.221916 0.358006,-1.048032 0.699557,-0.99654 0.147166,0.02219 0.443145,-0.01319 0.657731,-0.07862 0.214586,-0.06543 0.464732,-0.04438 0.555881,0.04676 0.25446,0.25446 -0.22149,0.614693 -0.700623,0.530281 -0.41406,-0.07295 -0.430597,-0.05974 -0.561272,0.448135 -0.07405,0.287814 -0.241339,0.629993 -0.371745,0.7604 -0.181067,0.181067 -0.165684,0.312743 0.06509,0.557161 0.176262,0.186671 0.20455,0.276257 0.06789,0.214954 -0.128868,-0.05781 -0.291551,-0.09877 -0.361516,-0.09103 -0.06996,0.0077 -0.190265,-0.151975 -0.267334,-0.35492 z m 7.763527,7.943672 c -1e-6,-0.600845 1.416841,-1.147599 1.850382,-0.714058 0.0994,0.0994 0.30894,-0.0122 0.634862,-0.338117 0.565251,-0.565251 0.906617,-0.609419 1.342351,-0.173685 0.608285,0.608285 -0.09618,1.522369 -1.024277,1.329053 -0.366508,-0.07634 -0.565848,-0.0025 -0.902774,0.33443 -0.621295,0.621294 -1.900545,0.326733 -1.900544,-0.437623 z m -8.353753,-9.21567 c 0.02355,-0.253445 0.0773,-0.289083 0.291854,-0.193529 0.365995,0.163 0.344096,0.56597 -0.02887,0.531306 -0.226523,-0.02105 -0.285392,-0.09666 -0.262982,-0.337777 z M 24.84833,29.546873 c 0.158338,-0.1072 0.463771,-0.163921 0.678742,-0.12605 0.214972,0.03787 0.515249,-0.05553 0.667284,-0.207567 0.152036,-0.152035 0.32734,-0.225516 0.389565,-0.16329 0.06223,0.06222 0.205459,0.02727 0.318299,-0.07768 0.199179,-0.185263 0.02893,0.424522 -0.209901,0.751764 -0.05251,0.07194 -0.14424,0.261522 -0.203852,0.421283 -0.132101,0.354026 -0.640313,0.431609 -0.929956,0.141965 -0.113159,-0.113159 -0.288121,-0.186298 -0.388804,-0.16253 -0.370684,0.08751 -0.626023,-0.371639 -0.321377,-0.577895 z m 5.299409,4.763967 c 0.09334,-0.09334 0.119764,-0.219648 0.05872,-0.280687 -0.223499,-0.223499 0.304581,-0.829304 0.74192,-0.851116 0.630417,-0.03144 0.90756,0.328696 0.537625,0.698631 -0.16622,0.16622 -0.310364,0.465554 -0.320321,0.665188 -0.01,0.199634 -0.133964,0.414571 -0.275572,0.477637 -0.335954,0.149621 -0.983064,-0.468965 -0.742376,-0.709653 z M 20.251771,24.060287 c 0.224915,-0.742842 1.437726,-0.598825 1.459174,0.173271 0.0044,0.160009 0.08445,0.367292 0.177787,0.46063 0.305377,0.305377 -0.336594,0.752966 -0.747298,0.521023 -0.706844,-0.399188 -1.002338,-0.782786 -0.889663,-1.154924 z m 7.140916,6.873247 c 0.198343,-0.469265 0.818368,-0.935257 1.001174,-0.752451 0.286499,0.286499 0.182481,0.644083 -0.173448,0.596269 -0.157897,-0.02121 -0.357864,0.06884 -0.444375,0.200122 -0.12112,0.183796 -0.463044,0.144604 -0.383351,-0.04394 z M 14.722175,16.39338 c 0.130253,-0.05801 0.251934,-0.216343 0.270403,-0.351851 0.0588,-0.431401 1.193978,-1.271537 1.368236,-1.012621 0.176816,0.262718 -0.452953,1.008973 -0.903732,1.070892 -0.222377,0.03055 -0.231871,0.05307 -0.04223,0.100174 0.191005,0.04745 0.174313,0.08324 -0.07613,0.163276 -0.17643,0.05638 -0.361601,0.188965 -0.411493,0.294637 -0.04989,0.105671 -0.169725,0.113117 -0.266296,0.01655 -0.110249,-0.110249 -0.08746,-0.214828 0.06124,-0.281054 z m 4.714595,4.159317 c -0.02452,-0.269281 0.01844,-0.429962 0.09548,-0.35707 0.07703,0.07289 0.356045,-0.01522 0.620027,-0.1958 0.863197,-0.590486 1.91279,0.445094 1.186862,1.171022 -0.602263,0.602263 -1.827493,0.204141 -1.90237,-0.618148 z m 7.461583,7.328089 c -0.04143,-0.235164 -0.0075,-0.495411 0.07543,-0.578327 0.501033,-0.501033 0.286848,-1.081294 -0.833453,-2.257951 -0.59714,-0.62718 -1.314738,-1.429896 -1.594662,-1.783811 -0.496475,-0.627712 -0.521102,-0.63845 -1.004734,-0.438123 -0.930358,0.385367 -1.461869,-0.325236 -1.030113,-1.377209 0.192551,-0.469154 0.163953,-0.548324 -0.486083,-1.34563 -0.379869,-0.46593 -0.76806,-0.975719 -0.862646,-1.132863 -0.151353,-0.251454 -0.226944,-0.230745 -0.630334,0.172645 -0.252099,0.252099 -0.419021,0.4977 -0.370937,0.545783 0.04808,0.04808 0.03028,0.14457 -0.03956,0.214414 -0.09085,0.09085 -0.134776,0.04323 -0.154347,-0.167334 -0.02112,-0.22725 -0.114551,-0.31448 -0.409977,-0.382765 -0.728351,-0.168351 -0.563833,-1.460169 0.208698,-1.638732 0.309041,-0.07143 0.312125,-0.155429 0.02895,-0.788543 -0.174316,-0.389727 -0.326655,-0.99394 -0.338531,-1.342695 -0.01188,-0.348755 -0.0618,-0.634101 -0.110938,-0.634102 -0.303465,10e-7 0.04143,-1.760849 0.454295,-2.319383 1.917392,-2.593902 4.982783,-3.8759165 10.758973,-4.4996428 0.501605,-0.054164 1.021701,-0.1415238 1.155769,-0.1941326 0.134067,-0.052609 0.650044,-0.1475715 1.146617,-0.2110278 1.842511,-0.2354536 3.937668,-1.1911951 4.584012,-2.0910754 1.711727,-2.3831682 1.683183,-2.38699 4.73996,0.634667 2.816322,2.7839639 2.816322,2.7839639 2.110043,3.4676879 -0.708759,0.6861247 -0.7266,0.3721687 -0.02191,-0.3855301 0.459502,-0.4940658 0.07358,-0.7053163 -0.499928,-0.2736538 -0.266274,0.2004167 -0.996095,0.7179318 -1.621826,1.1500326 -1.599627,1.104632 -2.271693,1.811554 -2.586149,2.720276 -0.290233,0.838719 -0.477119,0.94817 -0.649102,0.38015 -0.17556,-0.579834 -0.420465,-0.446685 -0.371893,0.202188 0.02383,0.318405 0.0018,0.620453 -0.04897,0.671219 -0.05077,0.05077 -0.15233,0.406888 -0.225699,0.791384 -0.07337,0.384496 -0.203592,0.769277 -0.289384,0.85507 -0.08579,0.08579 -0.148221,0.404736 -0.13873,0.708761 0.0095,0.304027 -0.05667,0.58654 -0.147028,0.627806 -0.09036,0.04127 -0.17394,0.350209 -0.185741,0.686538 -0.0157,0.447488 -0.08232,0.597139 -0.248377,0.557938 -0.164944,-0.03894 -0.21698,0.0888 -0.190529,0.467708 0.02002,0.286703 -0.06522,0.834533 -0.189404,1.2174 -0.124186,0.382867 -0.229005,1.146559 -0.23293,1.697092 -0.0039,0.550533 -0.07338,1.128812 -0.154342,1.285065 -0.08096,0.156251 -0.0754,0.406757 0.01237,0.556678 0.187679,0.320597 -0.154486,2.007206 -0.575391,2.836219 -0.535645,1.055008 -2.048391,1.942898 -2.515086,1.476203 -0.08174,-0.08174 -0.191634,-0.05204 -0.244207,0.06601 -0.05257,0.118043 -0.213151,0.162267 -0.356842,0.09827 -0.189632,-0.08446 -0.196391,-0.145242 -0.02465,-0.221728 0.140931,-0.06276 0.173228,-0.168749 0.07988,-0.2621 -0.0862,-0.0862 -0.241643,-0.114364 -0.345429,-0.06259 -0.145862,0.07277 -1.034134,-0.751291 -3.912658,-3.629814 -3.20487,-3.204871 -3.883342,-3.825203 -4.867399,-4.450311 -3.164054,-2.009917 -4.102307,-4.03577 -2.897445,-6.256098 0.175109,-0.322694 0.303014,-0.66925 0.28423,-0.770124 -0.06174,-0.331555 1.716477,-1.456328 2.976841,-1.882942 0.664046,-0.22477 1.277117,-0.477444 1.362381,-0.5615 0.08526,-0.08406 0.55626,-0.1986708 1.04666,-0.2547008 0.4904,-0.05603 0.928382,-0.1386185 0.973293,-0.1835298 0.04491,-0.044911 0.735633,-0.1799034 1.534936,-0.2999829 0.799302,-0.1200796 1.6448,-0.2813624 1.878881,-0.3584077 0.234083,-0.077044 0.863545,-0.1957551 1.398805,-0.2638016 0.979901,-0.1245718 2.989233,-0.7641913 3.244796,-1.0328985 0.07567,-0.079562 -0.205184,-0.027811 -0.624119,0.1150016 -0.418934,0.1428126 -1.987451,0.4580284 -3.485591,0.7004804 -6.647652,1.075824 -8.565468,1.7668253 -10.451358,3.7656923 -1.784005,1.89088 -1.682263,4.121574 0.300031,6.578221 0.51345,0.636314 0.982794,1.260425 1.042985,1.38691 0.1025,0.21539 1.358576,1.698738 4.104473,4.84713 1.328991,1.523794 1.352537,1.576811 1.039242,2.339814 -0.311062,0.75756 0.105403,1.089035 0.987539,0.786005 0.605997,-0.208171 1.126636,-0.102336 0.615787,0.125177 -0.136198,0.06066 -0.32215,0.184804 -0.413227,0.27588 -0.512328,0.512329 -1.630432,0.08488 -1.764208,-0.674458 z m 3.426071,0.789203 c 0.935649,0.461487 3.369479,0.344056 4.487682,-0.216531 2.841349,-1.424446 3.390038,-2.574416 4.609015,-9.659775 0.265976,-1.545996 0.635719,-3.161808 0.821652,-3.590694 0.185934,-0.428886 0.524746,-1.282965 0.752917,-1.897954 0.22817,-0.614989 0.582614,-1.278779 0.787652,-1.475089 0.338437,-0.324024 0.33632,-0.282765 -0.02293,0.447645 -0.217648,0.442515 -0.404486,1.019353 -0.415193,1.281862 -0.01071,0.262509 -0.26177,0.883462 -0.557914,1.379897 -0.438431,0.734957 -0.628563,1.427425 -1.023638,3.72812 -0.923476,5.377821 -1.852765,8.355002 -2.731008,8.749391 -0.216847,0.09738 -0.555902,0.339716 -0.753454,0.538528 -1.380284,1.389086 -4.585959,1.813919 -6.002014,0.795419 -0.460642,-0.331318 -0.460642,-0.331318 0.04723,-0.08082 z"
         id="path3074"
         inkscape:connector-curvature="0" />
      <path
         style="fill:#74949e"
         d="m 11.348126,42.86434 c 2e-6,-0.07656 -0.643085,-0.769438 -1.4290816,-1.539726 C 8.9327832,40.358061 8.3930107,39.725216 8.1770738,39.282278 7.942931,38.801994 7.7753761,38.613577 7.5113141,38.533625 7.0864583,38.40499 4.4512931,35.55941 4.3027747,35.068887 c -0.09221,-0.304548 0.3136635,-1.703236 0.7019952,-2.419167 0.097332,-0.179438 0.1504452,-0.548272 0.1180325,-0.81963 -0.032412,-0.271359 0.00225,-0.554561 0.077027,-0.629337 0.074777,-0.07478 0.177558,-0.364636 0.2284017,-0.64413 0.050844,-0.279494 0.136149,-0.617201 0.1895665,-0.75046 0.053418,-0.133259 0.1716449,-0.57506 0.2627276,-0.98178 0.2410146,-1.076227 0.8846539,-2.840962 1.0504381,-2.880098 0.078443,-0.01852 0.3649884,-0.414617 0.6367695,-0.880221 1.5715738,-2.692352 4.8111462,-3.404862 7.5870922,-1.668702 0.597897,0.373942 0.781887,0.40495 1.304812,0.219907 1.202791,-0.425621 1.886247,0.357151 1.194615,1.368209 -0.543859,0.795037 0.995514,2.044579 1.678014,1.362079 0.417597,-0.417597 0.951779,-0.427629 1.35398,-0.02543 0.424174,0.424173 0.387222,0.773241 -0.137384,1.297847 -0.446088,0.446088 -0.446088,0.446088 0.493313,1.260312 1.241093,1.075714 1.3771,1.12323 1.852986,0.647343 0.490473,-0.490473 0.918775,-0.53686 1.287172,-0.139409 0.285995,0.308554 0.285995,0.308554 -0.06229,0.112564 -0.783744,-0.44103 -1.41547,0.234057 -0.869018,0.928667 0.280835,0.356976 0.858565,0.24413 1.101181,-0.215087 0.104293,-0.197405 0.112039,-0.18966 0.0697,0.0697 -0.0262,0.160482 -0.139169,0.384885 -0.251054,0.498674 -0.386466,0.393051 0.501328,0.910635 1.028109,0.599389 0.869191,-0.513558 1.849851,-0.105519 1.894428,0.788247 0.02255,0.452205 -0.435113,1.021262 -0.945683,1.175849 -0.262033,0.07934 -0.254898,0.244218 0.04765,1.100759 0.85483,2.420104 -0.748247,6.266947 -3.018392,7.243121 -0.225406,0.09693 -0.603073,0.288456 -0.83926,0.425621 -0.952169,0.552976 -2.110725,0.988924 -2.858875,1.075755 -0.434777,0.05046 -0.817767,0.119013 -0.851091,0.152336 -0.07707,0.07707 -2.776707,0.709494 -4.186395,0.980715 -0.590626,0.113635 -1.129412,0.262157 -1.197303,0.330048 -0.131249,0.13125 -1.89592,-1.533197 -1.89592,-1.788242 z m 1.91641,1.315204 c 0.07916,-0.07916 0.465267,-0.176714 0.858016,-0.216787 0.734641,-0.07496 4.289994,-0.858288 4.401456,-0.96975 0.03431,-0.03431 0.363687,-0.102944 0.73194,-0.152511 4.764771,-0.641333 8.120861,-5.267795 6.539464,-9.014826 -0.256861,-0.608618 -0.303531,-0.876536 -0.140005,-0.803708 0.749617,0.333852 1.593483,-0.818012 1.019667,-1.391827 -0.553053,-0.553054 -1.776544,-0.04904 -1.57903,0.650474 0.06468,0.229088 -0.0767,0.169197 -0.59604,-0.252488 -3.623436,-2.942077 -4.96307,-4.191787 -4.647086,-4.335146 0.691992,-0.313949 0.831713,-0.445811 0.831713,-0.784933 0,-0.458714 -0.209203,-0.670341 -0.662666,-0.670336 -0.42197,-1e-6 -0.746704,0.286544 -0.746704,0.658888 0,0.463038 -0.306111,0.298032 -1.322271,-0.712763 -0.985726,-0.980522 -0.985726,-0.980522 -0.597827,-1.300995 0.939626,-0.776299 0.213403,-1.676381 -0.776955,-0.962963 -0.48879,0.352105 -0.504262,0.349509 -1.47441,-0.247427 C 12.485361,22.061314 9.6318218,22.600851 7.9620449,25.022783 6.902257,26.559955 4.5150176,35.005198 4.9970811,35.511821 5.2565689,35.784523 5.528882,35.279315 5.7195689,34.17143 5.804691,33.676877 5.9716949,32.978382 6.0906891,32.61922 6.2096833,32.260059 6.4773385,31.270996 6.685479,30.421305 6.8936184,29.571613 7.3003116,28.437306 7.5892403,27.900624 7.878169,27.363941 8.1025699,26.795774 8.0879084,26.63803 8.020956,25.917591 9.7013203,23.954794 10.641714,23.654986 c 1.717439,-0.547538 3.113668,0.189296 7.449692,3.931432 4.821723,4.161313 5.76254,5.230804 5.862816,6.664676 0.01737,0.248426 0.08739,0.480951 0.155605,0.516724 0.06821,0.03577 0.145945,0.402645 0.172749,0.815275 0.0268,0.41263 0.133419,0.989319 0.236926,1.281532 0.364766,1.029775 -0.846937,2.938535 -2.598729,4.093701 -1.455525,0.959802 -1.723203,1.073324 -3.934671,1.66869 -0.7354,0.19798 -1.896899,0.51292 -2.581111,0.699864 -0.684211,0.186945 -1.555192,0.410565 -1.935513,0.496935 -0.548709,0.12461 -0.656119,0.192409 -0.520181,0.328346 0.09422,0.09422 0.236078,0.106544 0.315239,0.02738 z m 0.713862,-23.578916 c 0.246349,-0.548581 0.666421,-0.743624 1.074868,-0.499069 0.48015,0.287486 0.66599,0.737051 0.45422,1.0988 -0.487792,0.833253 -1.920288,0.271408 -1.529088,-0.599731 z m 0.736231,0.739852 c 0.413358,0 0.555984,-0.187904 0.461014,-0.607369 -0.146052,-0.645095 -0.991545,-0.499297 -0.991545,0.170983 -1e-6,0.359446 0.09354,0.436386 0.530531,0.436386 z m 6.815837,5.899291 c -2e-6,-0.344586 1.011792,-1.100097 1.20907,-0.902819 0.05016,0.05016 -0.113558,0.183748 -0.363825,0.296857 -0.798079,0.360691 -0.599188,1.273314 0.26807,1.230058 0.501069,-0.02499 0.69272,-0.219255 0.718084,-0.727882 0.04556,-0.913401 1.421787,-1.696482 1.98742,-1.130848 0.616613,0.616613 -0.07892,1.532912 -1.015502,1.337828 -0.366508,-0.07634 -0.565848,-0.0025 -0.902774,0.33443 -0.621295,0.621294 -1.900545,0.326733 -1.900544,-0.437623 z m 3.289885,-0.05564 c 0.662677,-0.06159 0.777539,-1.059303 0.138662,-1.204443 -0.638403,-0.145032 -1.087986,0.58366 -0.637833,1.033813 0.109213,0.109212 0.33384,0.185996 0.499171,0.17063 z m -8.095025,-6.491434 c 0.174425,-0.837389 1.25289,-0.962849 1.652208,-0.192203 0.188456,0.363706 -0.04278,0.82748 -0.552461,1.108032 -0.371092,0.204265 -0.37125,0.189125 -0.0031,-0.300129 0.439714,-0.58443 0.280367,-1.07454 -0.319099,-0.981469 -0.509919,0.07917 -0.555077,0.174303 -0.395377,0.832969 0.143508,0.591883 0.143508,0.591883 -0.165435,0.283787 -0.200081,-0.199629 -0.27645,-0.464086 -0.21669,-0.750987 z m 3.526446,3.367592 c 0.124662,-0.411734 0.899717,-0.669026 1.177767,-0.390975 0.253968,0.253968 0.387732,0.64379 0.26353,0.767992 -0.06791,0.06791 -0.126311,-0.008 -0.142825,-0.185727 -0.04675,-0.502969 -0.612407,-0.68061 -0.92231,-0.289644 -0.231283,0.291783 -0.215771,0.38266 0.117238,0.686819 0.211083,0.1928 0.309904,0.367984 0.219598,0.389303 -0.325997,0.07696 -0.825108,-0.607495 -0.712999,-0.977766 z m 6.646582,3.820499 c -0.04143,-0.235162 -0.0075,-0.495409 0.07543,-0.578325 0.501033,-0.501033 0.286848,-1.081294 -0.833453,-2.257951 -0.59714,-0.62718 -1.314738,-1.429896 -1.594662,-1.783811 -0.496475,-0.627712 -0.521102,-0.63845 -1.004734,-0.438123 -0.930358,0.385367 -1.461869,-0.325236 -1.030113,-1.377209 0.192551,-0.469154 0.163953,-0.548324 -0.486083,-1.34563 -0.379869,-0.46593 -0.76806,-0.975719 -0.862646,-1.132863 -0.151353,-0.251454 -0.226944,-0.230745 -0.630334,0.172645 -0.252099,0.252099 -0.419021,0.4977 -0.370937,0.545783 0.04808,0.04808 0.03028,0.14457 -0.03956,0.214414 -0.09085,0.09085 -0.134776,0.04323 -0.154347,-0.167334 -0.02112,-0.22725 -0.114551,-0.31448 -0.409977,-0.382765 -0.728351,-0.168351 -0.563833,-1.460169 0.208698,-1.638732 0.309041,-0.07143 0.312125,-0.155429 0.02895,-0.788543 -0.174316,-0.389727 -0.326655,-0.99394 -0.338531,-1.342695 -0.01188,-0.348755 -0.0618,-0.634101 -0.110938,-0.634102 -0.303465,1e-6 0.04143,-1.760849 0.454295,-2.319383 1.917392,-2.593902 4.982783,-3.8759165 10.758973,-4.4996428 0.501605,-0.054164 1.021701,-0.1415238 1.155769,-0.1941326 0.134067,-0.052609 0.650044,-0.1475715 1.146617,-0.2110278 1.842511,-0.2354536 3.937668,-1.1911951 4.584012,-2.0910754 1.711727,-2.3831682 1.683183,-2.38699 4.73996,0.634667 2.816322,2.7839639 2.816322,2.7839639 2.110043,3.4676879 -0.708759,0.6861247 -0.7266,0.3721687 -0.02191,-0.3855301 0.459502,-0.4940658 0.07358,-0.7053163 -0.499928,-0.2736538 -0.266274,0.2004167 -0.996095,0.7179318 -1.621826,1.1500326 -1.599627,1.104632 -2.271693,1.811554 -2.586149,2.720276 -0.290233,0.838719 -0.477119,0.94817 -0.649102,0.38015 -0.17556,-0.579834 -0.420465,-0.446685 -0.371893,0.202188 0.02383,0.318405 0.0018,0.620453 -0.04897,0.671219 -0.05077,0.05077 -0.15233,0.406888 -0.225699,0.791384 -0.07337,0.384496 -0.203592,0.769277 -0.289384,0.85507 -0.08579,0.08579 -0.148221,0.404736 -0.13873,0.708761 0.0095,0.304027 -0.05667,0.58654 -0.147028,0.627806 -0.09036,0.04127 -0.17394,0.350209 -0.185741,0.686538 -0.0157,0.447488 -0.08232,0.597139 -0.248377,0.557938 -0.164944,-0.03894 -0.21698,0.0888 -0.190529,0.467708 0.02002,0.286703 -0.06522,0.834533 -0.189404,1.2174 -0.124186,0.382867 -0.229005,1.146559 -0.23293,1.697092 -0.0039,0.550533 -0.07338,1.128812 -0.154342,1.285065 -0.08096,0.156251 -0.0754,0.406757 0.01237,0.556678 0.187679,0.320597 -0.154486,2.007206 -0.575391,2.836219 -0.535645,1.055008 -2.048391,1.942898 -2.515086,1.476203 -0.08174,-0.08174 -0.191634,-0.05204 -0.244207,0.06601 -0.05257,0.118043 -0.213151,0.162267 -0.356842,0.09827 -0.189632,-0.08446 -0.196391,-0.145242 -0.02465,-0.221728 0.140931,-0.06276 0.173228,-0.168749 0.07988,-0.2621 -0.0862,-0.0862 -0.241643,-0.114364 -0.345429,-0.06259 -0.145862,0.07277 -1.034134,-0.751291 -3.912658,-3.629814 -3.20487,-3.204871 -3.883342,-3.825203 -4.867399,-4.450311 -3.164054,-2.009917 -4.102307,-4.03577 -2.897445,-6.256098 0.175109,-0.322694 0.303014,-0.66925 0.28423,-0.770124 -0.06174,-0.331555 1.716477,-1.456328 2.976841,-1.882942 0.664046,-0.22477 1.277117,-0.477444 1.362381,-0.5615 0.08526,-0.08406 0.55626,-0.1986708 1.04666,-0.2547008 0.4904,-0.05603 0.928382,-0.1386185 0.973293,-0.1835298 0.04491,-0.044911 0.735633,-0.1799034 1.534936,-0.2999829 0.799302,-0.1200796 1.6448,-0.2813624 1.878881,-0.3584077 0.234083,-0.077044 0.863545,-0.1957551 1.398805,-0.2638016 0.979901,-0.1245718 2.989233,-0.7641913 3.244796,-1.0328985 0.07567,-0.079562 -0.205184,-0.027811 -0.624119,0.1150016 -0.418934,0.1428126 -1.987451,0.4580284 -3.485591,0.7004804 -6.647652,1.075824 -8.565468,1.7668253 -10.451358,3.7656923 -1.764159,1.869845 -1.679991,4.110191 0.244821,6.516453 0.484262,0.605391 1.107098,1.427364 1.384076,1.826608 0.27698,0.399242 0.522711,0.745006 0.546068,0.768364 0.02336,0.02336 -0.0446,0.06302 -0.150998,0.08814 -0.297646,0.07026 -0.601964,0.676564 -0.478608,0.953543 0.172328,0.38694 0.722287,0.470599 1.103705,0.167895 0.373646,-0.296534 1.523599,0.61788 1.523599,1.211531 0,0.157451 0.367728,0.569323 1.030521,1.154232 1.361449,1.201464 1.612772,1.662681 1.188038,2.180241 -0.771206,0.939756 0.322692,1.982502 1.18019,1.125004 0.253449,-0.25345 0.666643,-0.310495 0.666644,-0.09204 -10e-7,0.921702 -2.160107,0.703137 -2.325434,-0.235292 z m -6.803664,-8.77073 c 0.414951,-0.09517 0.551005,-0.608551 0.263957,-0.996002 -0.277988,-0.375222 -1.027437,-0.122624 -1.072427,0.361455 -0.03768,0.405404 0.379597,0.732913 0.80847,0.634547 z m -0.07557,0.980724 c 0.136198,-0.06066 0.321095,-0.183749 0.410884,-0.273538 0.08979,-0.08979 0.348408,-0.08011 0.57471,0.02152 0.568286,0.255198 0.712781,0.957038 0.283013,1.374644 -0.312947,0.304091 -0.312947,0.304091 -0.105068,-0.223421 0.298977,-0.758675 -0.399136,-1.299985 -0.957041,-0.74208 -0.112006,0.112005 -0.260005,0.147288 -0.328889,0.07841 -0.06888,-0.06888 -0.01381,-0.17487 0.122391,-0.235528 z m 10.305305,8.579211 c 0.935649,0.461487 3.369479,0.344056 4.487682,-0.216531 2.841349,-1.424446 3.390038,-2.574416 4.609015,-9.659775 0.265976,-1.545996 0.635719,-3.161808 0.821652,-3.590694 0.185934,-0.428886 0.524746,-1.282965 0.752917,-1.897954 0.22817,-0.614989 0.582614,-1.278779 0.787652,-1.475089 0.338437,-0.324024 0.33632,-0.282765 -0.02293,0.447645 -0.217648,0.442515 -0.404486,1.019353 -0.415193,1.281862 -0.01071,0.262509 -0.26177,0.883462 -0.557914,1.379897 -0.438431,0.734957 -0.628563,1.427425 -1.023638,3.72812 -0.923476,5.377821 -1.852765,8.355002 -2.731008,8.749391 -0.216847,0.09738 -0.555902,0.339716 -0.753454,0.538528 -1.380284,1.389086 -4.585959,1.813919 -6.002014,0.795419 -0.460642,-0.331318 -0.460642,-0.331318 0.04723,-0.08082 z"
         id="path3072"
         inkscape:connector-curvature="0" />
      <path
         style="fill:#556c67"
         d="m 11.348126,42.86434 c 2e-6,-0.07656 -0.643085,-0.769438 -1.4290816,-1.539726 C 8.9327832,40.358061 8.3930107,39.725216 8.1770738,39.282278 7.942931,38.801994 7.7753761,38.613577 7.5113141,38.533625 7.0864583,38.40499 4.4512931,35.55941 4.3027747,35.068887 c -0.09221,-0.304548 0.3136635,-1.703236 0.7019952,-2.419167 0.097332,-0.179438 0.1504452,-0.548272 0.1180325,-0.81963 -0.032412,-0.271359 0.00225,-0.554561 0.077027,-0.629337 0.074777,-0.07478 0.177558,-0.364636 0.2284017,-0.64413 0.050844,-0.279494 0.136149,-0.617201 0.1895665,-0.75046 0.053418,-0.133259 0.1718259,-0.574879 0.2631297,-0.981378 0.2987037,-1.329876 0.7858702,-2.549948 1.2209339,-3.057734 0.4018577,-0.469031 0.3987812,-0.433173 -0.052017,0.606264 -1.4782351,3.408466 -2.4832363,8.663479 -1.8039827,9.432781 0.8880446,1.005775 1.0343263,1.009357 1.12109,0.02746 0.028561,-0.323227 0.2807237,-1.288965 0.560359,-2.146083 0.2796375,-0.857119 0.495511,-1.697403 0.4797216,-1.867296 -0.015791,-0.169895 0.060014,-0.397622 0.1684543,-0.506063 0.1084396,-0.108439 0.2256576,-0.411503 0.2604834,-0.673474 0.542369,-4.079869 3.0271122,-6.597288 5.7099112,-5.785002 1.03664,0.31387 4.374994,2.842574 4.567298,3.459595 0.06699,0.214931 0.317573,0.421591 0.797125,0.657396 1.114485,0.548015 3.374408,2.87293 3.374408,3.471452 0,0.632801 0.300551,0.901859 0.53984,0.483272 0.147702,-0.258372 0.177149,-0.159409 0.145514,0.488982 -0.02558,0.524109 0.04664,0.851355 0.203272,0.921113 0.155693,0.06934 0.1982,0.252597 0.118358,0.510282 -0.160976,0.519543 -0.09742,0.794887 0.189645,0.821565 1.296555,0.120503 -0.636709,3.920527 -2.327158,4.574265 -0.501815,0.194064 -1.000371,0.440151 -1.1079,0.546861 -0.107573,0.106668 -0.449397,0.245602 -0.759704,0.308647 -0.310307,0.06305 -0.647458,0.19722 -0.749223,0.298166 -0.101808,0.100903 -0.659135,0.301262 -1.238598,0.445147 -0.579463,0.143886 -1.094227,0.302267 -1.14392,0.351961 -0.04969,0.04969 -0.676878,0.218672 -1.393742,0.375508 -0.716865,0.156837 -1.376234,0.358 -1.465263,0.447029 -0.08903,0.08903 -0.244248,0.142425 -0.344931,0.118657 -0.467531,-0.110369 -0.623366,0.394867 -0.240028,0.778205 0.407524,0.407525 0.963704,0.34257 4.761382,-0.556061 0.704462,-0.166693 1.501391,-0.337086 1.770956,-0.378648 3.992499,-0.615572 7.20251,-3.917416 7.032634,-7.233826 -0.04671,-0.911947 -0.01808,-1.096798 0.110005,-0.710171 0.638416,1.927077 -1.230744,5.802466 -3.208881,6.653075 -0.225406,0.09693 -0.603073,0.288456 -0.83926,0.425621 -0.952169,0.552976 -2.110725,0.988924 -2.858875,1.075755 -0.434777,0.05046 -0.817767,0.119013 -0.851091,0.152336 -0.07707,0.07707 -2.776707,0.709494 -4.186395,0.980715 -0.590626,0.113635 -1.129412,0.262157 -1.197303,0.330048 -0.131249,0.13125 -1.89592,-1.533197 -1.89592,-1.788242 z M 7.771738,24.698902 C 7.9290304,24.462963 8.3001026,24.04137 8.596344,23.762027 9.0210801,23.361518 8.9743415,23.452221 8.3752934,24.191005 7.5723593,25.181235 7.2940488,25.415436 7.771738,24.698902 z m 1.6231226,-1.524288 c 0.5406697,-0.558858 3.7607334,-0.991025 4.1894834,-0.562274 0.0765,0.0765 -0.264331,0.08899 -0.757391,0.02777 -1.094486,-0.135901 -1.933801,-0.02148 -2.8804841,0.39268 -0.3951783,0.172885 -0.6434024,0.236707 -0.5516083,0.141825 z m 7.0144944,0.459469 c 0.871517,-0.303709 1.349783,-0.166095 1.472641,0.423731 0.08695,0.417431 -0.31047,1.29634 -0.586169,1.29634 -0.136963,10e-7 -0.06032,-0.186496 0.319926,-0.778483 0.478285,-0.744614 -0.162096,-1.20543 -1.002661,-0.721511 -0.307803,0.177204 -0.629427,0.252404 -0.714719,0.167112 -0.12095,-0.12095 -0.0085,-0.206158 0.510982,-0.387189 z m 2.230211,2.895057 c 0.257441,0.10982 0.450214,0.0589 0.691855,-0.182738 0.418378,-0.418378 0.952364,-0.428734 1.354825,-0.02627 0.429846,0.429845 0.386146,0.778593 -0.162513,1.296955 -0.471216,0.445194 -0.471216,0.445194 -0.119399,-0.07509 0.694823,-1.027535 -0.312296,-1.931011 -1.048917,-0.940973 -0.275839,0.370739 -0.528841,0.362727 -0.891164,-0.02822 -0.128498,-0.138659 -0.07727,-0.151416 0.175313,-0.04367 z m -4.661168,-5.928512 c 0.246349,-0.548581 0.666421,-0.743624 1.074868,-0.499069 0.48015,0.287486 0.66599,0.737051 0.45422,1.0988 -0.487792,0.833253 -1.920288,0.271408 -1.529088,-0.599731 z m 0.736231,0.739852 c 0.413358,0 0.555984,-0.187904 0.461014,-0.607369 -0.146052,-0.645095 -0.991545,-0.499297 -0.991545,0.170983 -1e-6,0.359446 0.09354,0.436386 0.530531,0.436386 z m 6.815837,5.899291 c -2e-6,-0.344586 1.011792,-1.100097 1.20907,-0.902819 0.05016,0.05016 -0.113558,0.183748 -0.363825,0.296857 -0.578953,0.261658 -0.664504,0.764915 -0.193339,1.137318 0.464412,0.367065 1.146611,0.0242 1.17733,-0.591702 0.02439,-0.489096 0.92114,-1.425137 1.409631,-1.471398 0.287941,-0.02727 0.915905,0.529556 0.860742,0.763231 -0.01947,0.08247 -0.155031,-0.01086 -0.301251,-0.207382 -0.463539,-0.623011 -1.306217,-0.265314 -1.136361,0.482358 0.09464,0.416594 0.579644,0.540707 1.058954,0.270991 0.348284,-0.195987 0.348284,-0.195987 0.09479,0.08006 -0.155301,0.169127 -0.500311,0.259938 -0.890728,0.234461 -0.487854,-0.03183 -0.733313,0.05449 -1.04706,0.368237 -0.599884,0.599884 -1.877959,0.286682 -1.877958,-0.460207 z m -4.80514,-6.547078 c 0.174425,-0.837389 1.25289,-0.962849 1.652208,-0.192203 0.188456,0.363706 -0.04278,0.82748 -0.552461,1.108032 -0.371092,0.204265 -0.37125,0.189125 -0.0031,-0.300129 0.439714,-0.58443 0.280367,-1.07454 -0.319099,-0.981469 -0.509919,0.07917 -0.555077,0.174303 -0.395377,0.832969 0.143508,0.591883 0.143508,0.591883 -0.165435,0.283787 -0.200081,-0.199629 -0.27645,-0.464086 -0.21669,-0.750987 z m 3.526446,3.367592 c 0.124662,-0.411734 0.899717,-0.669026 1.177767,-0.390975 0.253968,0.253968 0.387732,0.64379 0.26353,0.767992 -0.06791,0.06791 -0.126311,-0.008 -0.142825,-0.185727 -0.04675,-0.502969 -0.612407,-0.68061 -0.92231,-0.289644 -0.231283,0.291783 -0.215771,0.38266 0.117238,0.686819 0.211083,0.1928 0.309904,0.367984 0.219598,0.389303 -0.325997,0.07696 -0.825108,-0.607495 -0.712999,-0.977766 z M 20.01912,20.090777 c 0.136197,-0.06066 0.321094,-0.183748 0.410883,-0.273537 0.08979,-0.08979 0.348408,-0.08011 0.57471,0.02152 0.568286,0.255198 0.712781,0.957038 0.283013,1.374644 -0.312947,0.304091 -0.312947,0.304091 -0.105068,-0.223421 0.298977,-0.758675 -0.399136,-1.299985 -0.957041,-0.74208 -0.112006,0.112005 -0.260005,0.147288 -0.328889,0.07841 -0.06888,-0.06888 -0.01381,-0.17487 0.122391,-0.235528 z m 2.319494,2.054744 c 0.0278,-0.557287 0.389457,-1.316374 0.511186,-1.072919 0.05218,0.104369 0.05071,0.238932 -0.0033,0.29903 -0.722099,0.803934 -0.08685,1.774177 0.81002,1.237183 0.306999,-0.183813 0.404694,-0.149812 0.799297,0.278178 0.449547,0.487587 0.449547,0.487587 -0.0132,0.112932 -0.321254,-0.260096 -0.551011,-0.328922 -0.751398,-0.225091 -0.707034,0.366354 -1.386528,0.05022 -1.352635,-0.629313 z m -3.246719,-3.579496 c 0.08993,-0.510445 0.442317,-0.897651 0.816939,-0.897651 0.211189,0 0.237169,-0.03436 0.116908,-0.154621 -0.08504,-0.08504 -0.101312,-0.15462 -0.03616,-0.15462 0.441886,0 0.309123,0.493853 -0.167444,0.622866 -0.42162,0.114138 -0.50768,0.189645 -0.533563,0.468142 -0.06808,0.732481 0.807067,0.964126 1.19495,0.316297 0.117125,-0.195619 0.261404,-0.30722 0.320622,-0.248002 0.154576,0.154576 -0.149322,0.676946 -0.499337,0.858308 -0.171001,0.08861 -0.246605,0.205943 -0.17733,0.275218 0.06642,0.06642 0.06362,0.177907 -0.0062,0.247751 -0.08619,0.08619 -0.136526,0.02439 -0.156669,-0.192332 -0.02248,-0.241868 -0.09322,-0.319323 -0.291617,-0.319323 -0.411961,0 -0.663265,-0.355512 -0.581075,-0.822033 z m 11.956058,10.545392 c 0.0369,-0.0369 0.655017,-0.06211 1.373594,-0.05603 2.017877,0.01709 4.414747,-1.263565 5.240262,-2.799891 0.489674,-0.911307 1.274719,-4.08891 1.877654,-7.600116 0.30899,-1.799411 0.645963,-3.159559 0.921026,-3.717594 0.23857,-0.483999 0.542817,-1.24293 0.676103,-1.686513 0.133287,-0.443583 0.364964,-0.924671 0.514837,-1.069082 0.209127,-0.201502 0.207406,-0.125334 -0.0074,0.32752 -0.153943,0.324547 -0.288532,0.800899 -0.29909,1.058556 -0.01056,0.257659 -0.261493,0.874644 -0.557637,1.371079 -0.438431,0.734957 -0.628563,1.427425 -1.023638,3.72812 -0.923476,5.377821 -1.852765,8.355002 -2.731008,8.749391 -0.216847,0.09738 -0.555902,0.339716 -0.753454,0.538528 -0.600504,0.604328 -2.241241,1.291852 -3.233833,1.355076 -0.904763,0.05763 -2.131819,-0.06465 -1.99742,-0.199048 z M 19.298007,14.112799 c 0.150653,-2.969738 4.439397,-5.2497375 11.260368,-5.9862818 0.501605,-0.054164 1.021701,-0.1415238 1.155769,-0.1941326 0.134067,-0.052609 0.650044,-0.1475715 1.146617,-0.2110278 1.842511,-0.2354536 3.937668,-1.1911951 4.584012,-2.0910754 1.711727,-2.3831682 1.683183,-2.38699 4.73996,0.634667 2.816322,2.7839639 2.816322,2.7839639 2.274971,3.2932045 -0.54135,0.5092421 -0.54135,0.5092421 -0.1576,-0.012105 0.220584,-0.2996763 0.31881,-0.5766655 0.231015,-0.6514535 -0.084,-0.071559 -0.257595,-0.2196941 -0.385757,-0.3291893 -0.261864,-0.2237213 -1.928917,0.8334015 -2.229717,1.4139211 -0.108919,0.2102038 -0.20835,0.2548878 -0.319608,0.1436298 -0.205083,-0.2050819 -1.530997,0.838544 -1.676685,1.319717 -0.08049,0.265846 -0.153601,0.299754 -0.371394,0.172257 -0.462276,-0.270619 -1.590884,0.909758 -1.388161,1.451834 0.206062,0.551002 -0.08311,0.834644 -0.367192,0.360178 -0.32128,-0.536593 -0.666571,-0.07257 -0.857463,1.152316 -0.08738,0.560675 -0.235446,1.333354 -0.329039,1.717066 -0.09359,0.383713 -0.183815,0.999013 -0.200493,1.367335 -0.01668,0.368322 -0.136713,0.835952 -0.266743,1.039178 -0.130031,0.203225 -0.181718,0.550167 -0.11486,0.770982 0.06686,0.220815 0.03084,0.657593 -0.08004,0.970619 -0.110884,0.313022 -0.125095,0.645641 -0.03158,0.739151 0.09351,0.09351 0.06628,0.422662 -0.06051,0.731449 -0.254485,0.619773 -0.123049,0.929592 0.240243,0.5663 0.128123,-0.128123 0.252398,-0.150575 0.276166,-0.04989 0.02377,0.100683 -0.07624,0.302517 -0.222247,0.448521 -0.146004,0.146004 -0.300552,0.656934 -0.343439,1.135398 -0.04289,0.478465 -0.151959,0.943919 -0.24238,1.03434 -0.09042,0.09042 -0.154898,0.414487 -0.143281,0.720145 0.01164,0.306359 -0.05955,0.536698 -0.158647,0.513304 -0.09887,-0.02334 -0.327998,0.114468 -0.509168,0.306241 -0.181165,0.191777 -0.364818,0.343096 -0.408098,0.336283 -0.04328,-0.0068 -0.471306,-0.06303 -0.951161,-0.12491 -1.154187,-0.148849 -1.642766,-0.515878 -5.0326,-3.780587 -1.69715,-1.634506 -3.292675,-3.053026 -4.048226,-3.599121 -3.903371,-2.821269 -4.128584,-5.013776 -0.757635,-7.375793 0.604269,-0.423409 1.206133,-0.79631 1.337475,-0.828667 0.810778,-0.199742 3.318011,-0.483391 4.221365,-0.477573 0.587358,0.0038 1.145409,-0.07061 1.240113,-0.165311 0.0947,-0.0947 0.46625,-0.163693 0.825658,-0.153309 0.359407,0.01038 0.997385,-0.118143 1.417727,-0.285614 0.420342,-0.1674718 0.853183,-0.2835014 0.961867,-0.2578448 0.108685,0.025657 0.541961,-0.081443 0.962834,-0.2380006 0.420873,-0.1565578 0.813944,-0.2993334 0.873491,-0.3172793 0.05955,-0.017946 0.02872,-0.1685117 -0.0685,-0.3345889 C 35.18318,8.7440827 35.211197,8.666186 35.468914,8.588156 35.830223,8.47876 37.93019,6.5246839 38.083163,6.1555261 c 0.05469,-0.1319846 0.235568,-0.3584013 0.401946,-0.50315 0.979972,-0.8525615 1.337757,-1.3775334 1.10052,-1.6147706 -0.22769,-0.2276895 -0.268813,-0.1967624 -1.26464,0.9510398 -1.899411,2.1892862 -2.856741,2.620816 -7.528069,3.393379 -7.680904,1.2703011 -11.020419,3.0793717 -11.168592,6.0502137 -0.01022,0.204921 -0.09773,0.412156 -0.194461,0.460524 -0.09673,0.04836 -0.156065,-0.302617 -0.13185,-0.779961 z"
         id="path3070"
         inkscape:connector-curvature="0" />
      <path
         style="fill:#3a4b3c"
         d="m 11.348128,42.882671 c 0,-0.06648 -0.61429,-0.773432 -1.3650865,-1.571011 C 9.2322435,40.51408 8.4575395,39.582876 8.2614775,39.242315 7.986491,38.764666 7.7972862,38.578498 7.4338254,38.427945 6.0452985,37.852799 4.1049386,35.034941 4.4623613,34.112682 c 0.1264805,-0.326356 0.3188158,-0.835448 0.427415,-1.131313 0.108598,-0.295868 0.2154424,-0.519949 0.2374328,-0.497959 0.061144,0.06114 -0.3815729,1.886826 -0.4818644,1.987118 -0.366425,0.366425 2.0405348,3.554978 2.6835653,3.554978 0.2929798,0 0.6550716,-0.989416 0.4707159,-1.286235 -0.16542,-0.266327 -0.1379085,-0.436552 0.1214888,-0.751739 0.3108012,-0.377643 0.3432908,-0.381165 0.4441219,-0.04814 0.080129,0.264651 0.1424351,0.325665 0.2365052,0.231595 0.07024,-0.07024 0.052583,-0.256042 -0.039238,-0.412892 -0.1635759,-0.279405 0.2129127,-2.249799 0.4811166,-2.518003 0.07483,-0.07483 0.1308826,-0.489117 0.1245639,-0.920639 -0.00632,-0.431523 0.038749,-0.734346 0.1001535,-0.672942 0.2021409,0.202141 0.2958783,-0.286397 0.1578692,-0.822778 -0.087359,-0.339525 -0.051725,-0.563768 0.1003492,-0.631496 0.1296958,-0.05776 0.2449576,-0.288438 0.2561378,-0.512617 0.011181,-0.224178 0.1903306,-0.67613 0.398109,-1.004336 0.207777,-0.328205 0.386032,-0.762208 0.396119,-0.964448 0.07388,-1.481191 3.596124,-2.020776 4.870736,-0.746165 0.09726,0.09726 0.319781,0.220121 0.494486,0.273016 0.174705,0.0529 1.023981,0.698821 1.887282,1.435386 0.863302,0.736565 1.971735,1.675334 2.463186,2.086152 0.756536,0.632409 0.866865,0.773622 0.719537,0.92095 -0.09571,0.09571 -0.124896,0.284291 -0.06487,0.419076 0.08378,0.188126 0.144917,0.176023 0.263114,-0.05209 0.08468,-0.163435 0.204093,-0.247032 0.265354,-0.185772 0.195512,0.195513 0.691406,1.549722 0.642833,1.755478 -0.02574,0.109016 0.02729,0.272291 0.117833,0.362833 0.09054,0.09054 0.155103,0.486029 0.143466,0.878858 -0.02116,0.714235 -0.02116,0.714235 0.248063,0.304631 0.269217,-0.409605 0.269217,-0.409605 0.253387,0.407989 -0.0087,0.449676 -0.08427,0.886031 -0.167913,0.969678 -0.08365,0.08365 -0.189241,0.366687 -0.234652,0.62898 -0.192341,1.110914 -2.596268,2.627115 -4.25631,2.684532 -0.29509,0.01021 -0.547026,0.128432 -0.650559,0.30529 -0.124512,0.21269 -0.397849,0.270467 -1.03889,0.219594 -2.240591,-0.177814 -2.362383,-0.149881 -1.29181,0.29628 0.440226,0.183465 0.09148,0.384371 -0.667213,0.384371 -0.373353,0 -0.725818,0.047 -0.783256,0.104433 -0.05744,0.05744 -0.157064,0.05181 -0.221388,-0.01252 -0.06432,-0.06432 -0.391587,-0.04614 -0.727251,0.04041 -0.335665,0.08655 -0.736475,0.0835 -0.89069,-0.0068 -0.28333,-0.165862 -0.737136,0.100302 -0.527847,0.309591 0.06222,0.06223 0.0175,0.208772 -0.09939,0.325658 -0.177929,0.17793 -0.09431,0.372037 0.513739,1.192561 1.033357,1.394448 1.057137,1.410039 1.891526,1.24021 0.413617,-0.08419 0.780231,-0.124866 0.814698,-0.0904 0.03447,0.03447 -0.174345,0.105669 -0.464027,0.158227 -0.289682,0.05256 -0.647933,0.152512 -0.796113,0.222121 -0.262026,0.12309 -1.935864,-1.312872 -1.935862,-1.660752 z M 5.1899844,31.584523 c 0.6771728,-2.880987 1.6189182,-5.791561 1.8115798,-5.5989 0.055354,0.05535 -0.007,0.323495 -0.13856,0.59587 -0.1315623,0.272375 -0.4597881,1.293309 -0.7293905,2.268742 -0.661324,2.392694 -0.92915,3.257884 -0.9897451,3.197289 -0.027928,-0.02793 -0.00718,-0.236279 0.046116,-0.463001 z M 19.308052,43.042251 c 0.705282,-0.04679 3.256071,-1.120608 4.537167,-1.910029 0.239557,-0.147616 0.252337,-0.141082 0.08847,0.04524 -0.550207,0.625609 -3.869261,2.007328 -4.662548,1.941017 -0.492062,-0.04113 -0.492062,-0.04113 0.03691,-0.07623 z m 5.561029,-3.148909 c 0.498255,-0.497351 0.707678,-0.667076 0.465475,-0.377072 -0.242204,0.290002 -0.649833,0.696959 -0.905889,0.904304 -0.25601,0.207391 -0.05784,-0.02988 0.440369,-0.527276 z m 1.239296,-1.995689 c 0.07032,-0.07032 0.154955,-0.79135 0.188081,-1.602293 0.04281,-1.048126 0.08926,-1.274495 0.160659,-0.782913 0.11292,0.777491 -0.118691,2.51306 -0.335367,2.51306 -0.07767,0 -0.08369,-0.05753 -0.01337,-0.127854 z m 6.188967,-8.791119 c 0.742809,-0.0039 1.376017,0.01837 1.40713,0.04949 0.03111,0.03111 -0.551184,0.05976 -1.293993,0.06365 -0.74281,0.0039 -1.376018,-0.01837 -1.40713,-0.04949 -0.03111,-0.03111 0.551183,-0.05976 1.293993,-0.06365 z M 19.300204,14.211502 c 0.168477,-2.593717 3.370165,-4.6801093 8.577809,-5.5897641 1.430255,-0.2498316 3.29888,-0.5894231 4.152502,-0.7546484 0.853621,-0.1652252 1.6432,-0.2788889 1.754619,-0.2525862 0.281897,0.066547 -0.128623,0.1651611 -2.108616,0.5065295 -3.253712,0.5609678 -6.501506,1.2449427 -7.486353,1.5766024 -2.310033,0.7779328 -4.628291,3.1308838 -4.678802,4.7488208 -0.0086,0.274498 -0.07031,0.499086 -0.13721,0.499086 -0.0669,0 -0.100173,-0.330318 -0.07395,-0.73404 z m 3.866892,3.257271 c -0.678598,-1.102664 -0.812046,-2.065596 -0.350256,-2.527385 0.15933,-0.159331 0.352901,-0.557452 0.430158,-0.884714 0.208439,-0.882965 1.460157,-1.512327 3.296068,-1.657262 1.534975,-0.121178 2.949275,-0.06059 2.770021,0.118664 -0.201161,0.201161 0.266492,0.8305 0.644196,0.866921 0.302376,0.02916 0.297234,-0.02369 -0.0454,-0.466652 -0.475386,-0.614579 -0.240115,-1.001219 0.321895,-0.528997 0.654856,0.550234 1.483469,0.918481 1.579836,0.7021 0.067,-0.150431 0.165892,-0.09195 0.385284,0.227817 0.162335,0.236608 0.321234,0.455027 0.35311,0.485377 0.268759,0.255893 0.390786,0.288036 0.537299,0.141523 0.09334,-0.09334 0.246073,-0.09334 0.339412,0 0.09334,0.09334 0.220617,0.118794 0.282842,0.05657 0.06223,-0.06222 0.294759,0.06849 0.516741,0.290467 0.343651,0.343651 0.361946,0.42519 0.123164,0.548916 -0.281717,0.145973 -0.204832,0.675777 0.09622,0.663051 0.07886,-0.0033 0.102473,-0.09243 0.05247,-0.19799 -0.05,-0.105561 -0.01879,-0.264054 0.06936,-0.352206 0.18874,-0.18874 0.419262,0.0071 0.489344,0.415753 0.03739,0.218029 4.92e-4,0.268928 -0.149117,0.205686 -0.344534,-0.14564 -0.534535,0.221342 -0.257851,0.498026 0.299455,0.299455 0.367874,1.041665 0.137083,1.487073 -0.140633,0.271411 -0.09066,0.465567 0.170728,0.663353 0.114024,0.08628 0.08735,3.945893 -0.02807,4.061312 -0.04879,0.04879 -0.01234,0.165071 0.081,0.258409 0.09334,0.09334 0.117702,0.221709 0.05414,0.285269 -0.06356,0.06356 -0.183141,0.44758 -0.265736,0.85338 -0.265745,1.305632 -1.499134,1.812694 -2.954889,1.214792 -0.543498,-0.223223 -2.99768,-2.106149 -3.053539,-2.342772 -0.01426,-0.06039 -0.651812,-0.642556 -1.416802,-1.293701 -0.764984,-0.65115 -1.804263,-1.544404 -2.309508,-1.985008 C 24.561054,18.835941 24.000406,18.368156 23.820414,18.237021 23.64042,18.105887 23.346423,17.76018 23.167092,17.468775 z M 35.08044,28.608655 c 0.163621,-0.08528 0.61592,-0.396657 1.005107,-0.69195 0.707612,-0.536895 0.707612,-0.536895 0.208226,-0.01805 -0.274663,0.285366 -0.72696,0.596744 -1.005105,0.691951 -0.278147,0.09521 -0.371849,0.103327 -0.208228,0.01805 z m 2.716241,-2.489803 c 0.375309,-0.621215 1.182367,-3.985067 1.767947,-7.368881 0.282501,-1.632441 0.565761,-3.020199 0.629468,-3.083906 0.152352,-0.152352 -0.998785,6.208298 -1.408018,7.780048 -0.511259,1.963606 -0.83492,2.890082 -1.046615,2.995931 -0.108782,0.05439 -0.08304,-0.09104 0.05722,-0.323192 z m 2.851004,-11.344504 c 0.186661,-0.343057 0.411756,-0.907749 0.500213,-1.254869 0.16083,-0.63113 0.16083,-0.63113 0.188794,-0.06671 0.01778,0.358851 -0.134692,0.815887 -0.418637,1.254871 -0.556565,0.860465 -0.724849,0.901988 -0.27037,0.06671 z M 37.25652,9.7035245 c -1e-6,-0.082968 0.08789,-0.2387408 0.195313,-0.3461634 C 37.559255,9.2499387 37.605888,9.0694062 37.55546,8.956177 37.416022,8.6430893 38.171325,7.2884651 39.253181,5.9113388 40.154855,4.7635742 40.206823,4.656128 39.984673,4.3989452 39.337467,3.6496736 39.435415,3.6361713 38.559497,4.5954006 38.113993,5.0832772 37.748878,5.3999104 37.748135,5.2990339 37.746528,5.0815395 38.867107,3.84333 39.261664,3.6266243 c 0.254666,-0.139873 0.336649,-0.074814 1.096098,0.869824 0.451464,0.5615521 1.34986,1.5102199 1.996438,2.1081507 2.69663,2.4937456 2.600724,2.3745625 2.229065,2.7700617 -0.310273,0.3301858 -0.313886,0.3297704 -0.06374,-0.00717 C 44.733674,9.0790386 44.725909,8.9522131 44.479151,8.7079512 43.756728,7.9928342 43.695255,8.0020037 42.086356,9.0648516 40.449543,10.146139 39.554427,10.512738 38.927417,10.35861 37.454873,9.9966368 37.25652,9.9188718 37.25652,9.7035245 z"
         id="path3068"
         inkscape:connector-curvature="0" />
      <path
         style="fill:#1f281c"
         d="m 11.348128,42.882671 c 0,-0.06648 -0.611013,-0.770683 -1.3578061,-1.564903 C 9.2435289,40.52355 8.4559986,39.577397 8.2402564,39.215208 7.954144,38.734885 7.752097,38.527647 7.4936014,38.449388 7.2986865,38.390373 6.7247761,37.909787 6.2182432,37.381419 c -0.9209687,-0.960668 -0.9209687,-0.960668 0.162268,-0.0074 0.5957799,0.524278 1.191975,0.976605 1.3248771,1.005175 0.1336183,0.02872 0.4261637,0.343096 0.6544087,0.703236 0.227022,0.358211 0.9929261,1.293016 1.702008,2.077343 1.704978,1.885905 2.757702,3.232477 1.878063,2.402291 -0.325466,-0.307161 -0.591753,-0.612865 -0.591746,-0.679349 z M 4.3232072,34.900353 c -0.018007,-0.109439 0.1074904,-0.618779 0.2788829,-1.131866 0.2283039,-0.683454 0.2965957,-0.796664 0.2554138,-0.423409 -0.030916,0.280211 -0.1257157,0.643617 -0.2106646,0.807569 -0.08495,0.163952 -0.1653137,0.465426 -0.1785858,0.669943 -0.02509,0.386615 -0.088623,0.420677 -0.1450463,0.07776 z m 8.2899358,1.443036 c -0.548974,-0.726842 -1.055981,-2.117526 -1.021366,-2.80153 0.01264,-0.249715 -0.06998,-0.546991 -0.183605,-0.660612 -0.123829,-0.123829 -0.124936,-0.342947 -0.0028,-0.546994 0.1121,-0.187225 0.196339,-0.580018 0.187196,-0.87287 -0.0091,-0.292854 0.135052,-0.794711 0.320432,-1.115239 0.18538,-0.320528 0.331259,-0.770732 0.324174,-1.000455 -0.02764,-0.896172 2.73036,-2.044312 3.07138,-1.278598 0.05568,0.125026 0.430665,0.341838 0.833291,0.481801 0.402628,0.139964 0.934928,0.433558 1.182887,0.652434 0.247959,0.218874 0.580815,0.44752 0.73968,0.5081 0.158864,0.06058 0.622893,0.51296 1.031178,1.00529 0.408283,0.492328 1.045346,1.187215 1.415693,1.544194 0.370349,0.356976 0.688207,0.751881 0.706356,0.877564 0.01815,0.125682 0.180647,0.512139 0.361108,0.858794 0.518591,0.996181 0.106043,2.89536 -0.832908,3.834311 -0.563487,0.563487 -0.748532,0.517223 -0.550275,-0.137578 0.193487,-0.639044 -0.270134,-0.531318 -1.304804,0.303181 -0.444835,0.358776 -0.912167,0.625869 -1.038514,0.593541 -0.126349,-0.03233 -0.404411,-0.0044 -0.617916,0.06215 -0.475098,0.147996 -0.683587,-0.02031 -0.389485,-0.314409 0.289504,-0.289504 0.703511,-0.466337 0.739077,-0.315679 0.01573,0.06661 0.209539,0.0562 0.430698,-0.02315 0.516257,-0.185216 0.276697,-0.504567 -0.28168,-0.375504 -0.202172,0.04673 -0.410818,0.04173 -0.463657,-0.01111 -0.171727,-0.171728 -1.024531,-0.01564 -1.147606,0.210039 -0.125039,0.229283 -1.070717,0.06065 -1.376895,-0.245525 -0.10892,-0.10892 -0.244421,-0.06608 -0.386811,0.122306 -0.248733,0.329076 -0.791577,-0.09231 -1.744861,-1.354452 z M 6.2216182,27.723625 c 0.1716791,-0.563554 0.3570855,-1.067272 0.4120138,-1.119374 0.054928,-0.0521 -0.051087,0.408987 -0.2355912,1.024643 -0.1845029,0.615654 -0.3699094,1.119373 -0.4120127,1.119372 -0.042104,10e-7 0.063912,-0.461089 0.2355901,-1.024641 z M 24.517044,17.544512 c -0.124137,-0.184724 -0.246216,-0.651673 -0.271289,-1.037661 -0.02507,-0.385989 -0.09473,-0.750937 -0.154787,-0.810998 -0.150522,-0.150523 0.161099,-0.434998 0.583449,-0.532619 0.274345,-0.06341 0.356708,-0.151328 0.380379,-0.406019 0.03871,-0.416537 -0.219139,-0.476999 -0.563911,-0.132228 -0.311439,0.31144 -0.684549,0.286532 -0.540858,-0.03611 0.180762,-0.405875 1.904008,-0.820209 3.311602,-0.796234 1.940807,0.03306 1.981579,0.04095 2.406159,0.465525 0.207971,0.207971 0.471081,0.381907 0.58469,0.386526 0.322073,0.01309 1.56404,1.0268 1.426509,1.164331 -0.179893,0.179893 0.199465,0.476913 0.460587,0.36062 0.236754,-0.105442 0.514417,1.012481 0.390334,1.57156 -0.02839,0.127911 0.09468,0.378864 0.273493,0.557673 0.184699,0.184699 0.348946,0.601947 0.380301,0.966101 0.03036,0.352546 0.107743,0.588441 0.171971,0.524214 0.06423,-0.06423 0.08308,-0.30804 0.0419,-0.541802 -0.05856,-0.332383 -0.01524,-0.425022 0.198749,-0.425023 0.21282,0 0.273627,0.06034 0.273629,0.271526 0,0.149341 0.09067,0.3622 0.201492,0.47302 0.128426,0.128427 0.11254,0.338181 -0.04381,0.578441 -0.134917,0.207323 -0.3245,0.5014 -0.421296,0.653506 -0.258296,0.405886 -0.3016,1.010915 -0.07616,1.064133 0.229828,0.05426 0.468704,-0.563386 0.368486,-0.95276 -0.0345,-0.134012 -0.01087,-0.29551 0.0525,-0.35888 0.06337,-0.06337 0.159195,0.146275 0.212949,0.465874 0.06297,0.374445 -6.61e-4,0.679483 -0.178945,0.857767 -0.15217,0.15217 -0.311763,0.428481 -0.354649,0.614025 -0.227156,0.982757 -1.730247,1.085148 -3.192111,0.217445 -1.521479,-0.903087 -5.234591,-4.140003 -5.921357,-5.161958 z m -1.73671,-7.529901 c 0.187052,-0.2195514 2.521296,-0.9576277 3.126189,-0.9884849 0.645874,-0.032948 0.645874,-0.032948 -0.08487,0.090914 -0.40191,0.068124 -1.269725,0.3203664 -1.928478,0.5605378 -0.658753,0.2401716 -1.159531,0.3918371 -1.11284,0.3370331 z m 15.973223,13.026952 c 0.08512,-0.330095 0.214051,-0.837555 0.286526,-1.127687 0.131771,-0.527515 0.131771,-0.527515 0.08299,-0.01061 -0.05575,0.590827 -0.392622,1.87012 -0.471643,1.791098 -0.02895,-0.02895 0.01701,-0.32271 0.102122,-0.652805 z M 39.191538,8.2964788 C 39.304566,8.1834504 39.266773,8.017966 39.086836,7.8380294 38.865091,7.6162841 38.863055,7.5060698 39.077254,7.319331 39.226856,7.1889178 39.653191,6.6509137 40.024676,6.1237752 40.767203,5.0701279 40.78189,5.2166026 39.806512,3.9479805 c -0.162281,-0.2110709 0.08189,0.053874 0.542604,0.5887673 1.129895,1.3118201 2.116221,2.2977745 3.225014,3.2237994 0.924744,0.772313 0.924744,0.772313 0.09735,0.1854936 C 42.844085,7.3592214 42.844085,7.3592214 42.375873,7.8210982 41.578286,8.6078918 39.861727,9.1634627 39.397332,8.7851156 39.116754,8.5565266 39.061851,8.4261653 39.191538,8.2964788 z"
         id="path3066"
         inkscape:connector-curvature="0" />
    </g>
  </g>
</svg>
